<?xml version="1.0" encoding="UTF-8"?>
<!DOCTYPE svg PUBLIC "-//W3C//DTD SVG 1.1//EN" "http://www.w3.org/Graphics/SVG/1.1/DTD/svg11.dtd">
<!-- Creator: CorelDRAW X7 -->
<svg xmlns="http://www.w3.org/2000/svg" xml:space="preserve" width="16.4252mm" height="9.3132mm" version="1.1" style="shape-rendering:geometricPrecision; text-rendering:geometricPrecision; image-rendering:optimizeQuality; fill-rule:evenodd; clip-rule:evenodd"
viewBox="0 0 1643 931"
 xmlns:xlink="http://www.w3.org/1999/xlink">
 <defs>
  <style type="text/css">
   <![CDATA[
    .str1 {stroke:#1C75BA;stroke-width:20}
    .str0 {stroke:#348DD1;stroke-width:20}
    .str2 {stroke:#348DD1;stroke-width:25.39;stroke-linecap:round}
    .fil2 {fill:none}
    .fil0 {fill:#68B1E6}
    .fil1 {fill:#BFF4FF}
   ]]>
  </style>
 </defs>
 <g id="图层_x0020_1">
  <metadata id="CorelCorpID_0Corel-Layer"/>
  <rect class="fil0 str0" x="75" y="549" width="119" height="127"/>
  <rect class="fil0 str0" x="75" y="269" width="119" height="127"/>
  <rect class="fil0 str0" x="1451" y="549" width="119" height="127"/>
  <rect class="fil0 str0" x="1451" y="269" width="119" height="127"/>
  <rect class="fil0 str0" x="1539" y="512" width="82.9293" height="201.771" rx="15" ry="15"/>
  <rect class="fil0 str0" x="1539" y="232" width="82.9293" height="201.771" rx="15" ry="15"/>
  <rect class="fil0 str0" x="22" y="512" width="82.9293" height="201.771" rx="15" ry="15"/>
  <rect class="fil0 str0" x="22" y="232" width="82.9293" height="201.771" rx="15" ry="15"/>
  <rect class="fil1 str0" x="166" y="82" width="1312" height="761" rx="50" ry="50"/>
  <rect class="fil0 str1" x="282" y="21" width="96.0466" height="897.363" rx="15" ry="20"/>
  <rect class="fil0 str1" x="1274" y="21" width="96.0466" height="897.363" rx="15" ry="20"/>
  <line class="fil2 str2" x1="456" y1="61" x2="452" y2= "870" />
  <line class="fil2 str2" x1="1194" y1="61" x2="1189" y2= "870" />
  <line class="fil2 str2" x1="548" y1="61" x2="544" y2= "870" />
  <line class="fil2 str2" x1="640" y1="61" x2="636" y2= "870" />
  <line class="fil2 str2" x1="732" y1="61" x2="728" y2= "870" />
  <line class="fil2 str2" x1="825" y1="61" x2="821" y2= "870" />
  <line class="fil2 str2" x1="917" y1="61" x2="913" y2= "870" />
  <line class="fil2 str2" x1="1009" y1="61" x2="1005" y2= "870" />
  <line class="fil2 str2" x1="1101" y1="61" x2="1097" y2= "870" />
 </g>
</svg>
