<?xml version="1.0" encoding="UTF-8"?>
<!DOCTYPE svg PUBLIC "-//W3C//DTD SVG 1.1//EN" "http://www.w3.org/Graphics/SVG/1.1/DTD/svg11.dtd">
<!-- Creator: CorelDRAW X7 -->
<svg xmlns="http://www.w3.org/2000/svg" xml:space="preserve" width="16.9332mm" height="10.1598mm" version="1.1" style="shape-rendering:geometricPrecision; text-rendering:geometricPrecision; image-rendering:optimizeQuality; fill-rule:evenodd; clip-rule:evenodd"
viewBox="0 0 1693 1016"
 xmlns:xlink="http://www.w3.org/1999/xlink">
 <defs>
  <style type="text/css">
   <![CDATA[
    .str4 {stroke:#348DD1;stroke-width:42.33}
    .str2 {stroke:#348DD1;stroke-width:16.93}
    .str0 {stroke:#348DD1;stroke-width:20}
    .str1 {stroke:#348DD1;stroke-width:20}
    .str3 {stroke:#68B1E6;stroke-width:20}
    .fil2 {fill:none}
    .fil5 {fill:#348DD1}
    .fil1 {fill:#68B1E6}
    .fil0 {fill:#96D2FF}
    .fil3 {fill:#BFF4FF}
    .fil4 {fill:#BFF4FF}
   ]]>
  </style>
 </defs>
 <g id="图层_x0020_1">
  <metadata id="CorelCorpID_0Corel-Layer"/>
  <g id="_2246471661584">
   <g>
    <rect class="fil0 str0" x="465" y="164" width="289" height="110"/>
    <rect class="fil0 str0" x="428" y="25" width="363" height="166"/>
    <rect class="fil0 str0" x="428" y="225" width="363" height="166"/>
   </g>
   <rect class="fil1 str0" x="762" y="644" width="666" height="223"/>
   <rect class="fil0 str0" x="1519" y="484" width="160" height="271"/>
   <rect class="fil0 str0" x="1428" y="432" width="122" height="376"/>
   <rect class="fil0 str0" x="934" y="164" width="527" height="320" rx="68" ry="68"/>
   <polygon class="fil0 str0" points="16,769 305,769 305,55 135,55 99,76 101,259 16,323 "/>
   <rect class="fil0 str0" x="64" y="339" width="503" height="503" rx="31" ry="55"/>
   <rect class="fil0 str0" x="478" y="805" width="124" height="154"/>
   <line class="fil2 str1" x1="105" y1="122" x2="298" y2= "122" />
   <line class="fil2 str1" x1="105" y1="172" x2="298" y2= "172" />
   <circle class="fil3 str2" cx="202" cy="144" r="38"/>
   <rect class="fil4" x="108" y="233" width="189.348" height="30.1148"/>
   <line class="fil2 str1" x1="67" y1="434" x2="329" y2= "434" />
   <line class="fil2 str1" x1="67" y1="546" x2="329" y2= "546" />
   <line class="fil2 str1" x1="67" y1="657" x2="329" y2= "657" />
   <line class="fil2 str1" x1="67" y1="769" x2="329" y2= "769" />
   <rect class="fil5" x="1010" y="935" width="43.5532" height="73.0779"/>
   <rect class="fil5" x="1107" y="935" width="43.5532" height="73.0779"/>
   <rect class="fil5" x="1204" y="935" width="43.5532" height="73.0779"/>
   <rect class="fil5" x="1301" y="935" width="43.5532" height="73.0779"/>
   <rect class="fil5" x="1398" y="935" width="43.5532" height="73.0779"/>
   <line class="fil2 str1" x1="1550" y1="547" x2="1640" y2= "547" />
   <line class="fil2 str1" x1="1550" y1="599" x2="1640" y2= "599" />
   <line class="fil2 str1" x1="1550" y1="651" x2="1640" y2= "651" />
   <line class="fil2 str1" x1="1550" y1="702" x2="1640" y2= "702" />
   <line class="fil2 str3" x1="1015" y1="171" x2="1015" y2= "238" />
   <line class="fil2 str3" x1="1076" y1="171" x2="1076" y2= "238" />
   <line class="fil2 str3" x1="1138" y1="171" x2="1138" y2= "238" />
   <line class="fil2 str3" x1="1199" y1="171" x2="1199" y2= "238" />
   <line class="fil2 str3" x1="1261" y1="171" x2="1261" y2= "238" />
   <line class="fil2 str3" x1="1322" y1="171" x2="1322" y2= "238" />
   <line class="fil2 str3" x1="1383" y1="171" x2="1383" y2= "238" />
   <rect class="fil0 str0" x="333" y="308" width="1168" height="500"/>
   <path class="fil0 str0" d="M950 968l552 0 0 -353 -515 0c0,42 -17,89 -37,110l0 243z"/>
   <rect class="fil1 str0" x="448" y="918" width="184.177" height="81.7222"/>
   <rect class="fil4" x="341" y="316" width="1152.14" height="30.1148"/>
   <rect class="fil0 str0" x="333" y="308" width="145" height="574"/>
   <rect class="fil4" x="341" y="316" width="129.052" height="74.8186"/>
   <rect class="fil4" x="995" y="621" width="498.321" height="21.382"/>
   <circle class="fil3 str2" cx="1095" cy="719" r="38"/>
   <circle class="fil3 str2" cx="1260" cy="818" r="22"/>
   <rect class="fil1" x="958" y="922" width="535.723" height="37.5863"/>
   <rect class="fil4" x="437" y="33" width="346.073" height="30.1148"/>
   <rect class="fil4" x="437" y="233" width="346.073" height="30.1148"/>
   <g>
    <line class="fil2 str4" x1="759" y1="682" x2="759" y2= "814" />
    <line class="fil2 str4" x1="702" y1="682" x2="702" y2= "814" />
    <line class="fil2 str4" x1="646" y1="682" x2="646" y2= "814" />
    <line class="fil2 str4" x1="589" y1="682" x2="589" y2= "814" />
    <line class="fil2 str4" x1="533" y1="682" x2="533" y2= "814" />
    <line class="fil2 str4" x1="759" y1="308" x2="759" y2= "439" />
    <line class="fil2 str4" x1="702" y1="308" x2="702" y2= "439" />
    <line class="fil2 str4" x1="646" y1="308" x2="646" y2= "439" />
    <line class="fil2 str4" x1="589" y1="308" x2="589" y2= "439" />
    <line class="fil2 str4" x1="533" y1="308" x2="533" y2= "439" />
    <polygon class="fil5" points="902,588 717,588 717,531 902,531 902,444 810,444 810,410 503,410 503,703 810,703 810,675 902,675 "/>
   </g>
   <rect class="fil4" x="942" y="232" width="511.671" height="12.959"/>
   <rect class="fil4" x="636" y="427" width="82.7548" height="261.636"/>
   <rect class="fil1" x="953" y="320" width="517" height="253" rx="126" ry="126"/>
   <rect class="fil0 str1" x="953" y="282" width="517" height="253" rx="126" ry="126"/>
   <path class="fil2 str3" d="M1061 315c10,23 15,53 15,84 0,42 -9,81 -24,104"/>
   <path class="fil2 str3" d="M1130 299c5,27 7,62 7,99 0,49 -4,94 -12,121"/>
   <path class="fil2 str3" d="M1361 315c-9,23 -14,53 -14,84 0,42 9,81 24,104"/>
   <path class="fil2 str3" d="M1292 299c-4,27 -7,62 -7,99 0,49 5,94 12,121"/>
   <circle class="fil1 str2" cx="1211" cy="408" r="38"/>
  </g>
 </g>
</svg>
