<?xml version="1.0" encoding="UTF-8"?>
<!DOCTYPE svg PUBLIC "-//W3C//DTD SVG 1.1//EN" "http://www.w3.org/Graphics/SVG/1.1/DTD/svg11.dtd">
<!-- Creator: CorelDRAW X7 -->
<svg xmlns="http://www.w3.org/2000/svg" xml:space="preserve" width="16.9332mm" height="8.1278mm" version="1.1" style="shape-rendering:geometricPrecision; text-rendering:geometricPrecision; image-rendering:optimizeQuality; fill-rule:evenodd; clip-rule:evenodd"
viewBox="0 0 1693 813"
 xmlns:xlink="http://www.w3.org/1999/xlink">
 <defs>
  <style type="text/css">
   <![CDATA[
    .str0 {stroke:#68B1E6;stroke-width:20}
    .str1 {stroke:#1C75BA;stroke-width:7.62}
    .fil3 {fill:none}
    .fil4 {fill:#1C75BA}
    .fil6 {fill:#1C75BA}
    .fil1 {fill:#68B1E6}
    .fil2 {fill:#BFF4FF}
    .fil7 {fill:white}
    .fil8 {fill:#1C75BA;fill-rule:nonzero}
    .fil0 {fill:#348DD1;fill-rule:nonzero}
    .fil5 {fill:#68B1E6;fill-rule:nonzero}
   ]]>
  </style>
 </defs>
 <g id="图层_x0020_1">
  <metadata id="CorelCorpID_0Corel-Layer"/>
  <g id="_2246434149648">
   <path class="fil0" d="M222 188l-104 0c-1,0 -1,1 -1,1l0 0c0,0 0,0 0,0l0 0 0 0 0 180 0 0c0,1 0,1 1,1l104 0 0 110 -104 0c-30,0 -58,-13 -78,-32 -21,-20 -33,-48 -33,-79l0 -180c0,-31 12,-58 33,-78 20,-20 48,-33 78,-33l104 0 0 110zm-105 181c0,0 0,0 0,0l0 0 0 0z"/>
   <rect class="fil1" x="166" y="54" width="563" height="158" rx="22" ry="56"/>
   <rect class="fil2" x="278" y="51" width="15.6677" height="164.257" rx="3" ry="10"/>
   <rect class="fil2" x="465" y="51" width="15.6677" height="164.257" rx="3" ry="10"/>
   <path class="fil0" d="M1472 78l104 0c30,0 58,13 78,33l0 0c20,20 33,47 33,78l0 180c0,31 -13,58 -33,79l0 0c-20,19 -48,32 -78,32l-104 0 0 -110 104 0c0,0 1,0 1,-1l0 0 0 -180 0 0c0,0 -1,-1 -1,-1l-104 0 0 -110z"/>
   <rect class="fil1" x="961" y="54" width="563" height="158" rx="22" ry="56"/>
   <path class="fil3 str0" d="M651 55l0 -14c0,-6 5,-11 11,-11l141 0c6,0 11,5 11,11l0 298"/>
   <path class="fil3 str0" d="M1045 55l0 -14c0,-6 -5,-11 -11,-11l-141 0c-6,0 -11,5 -11,11l0 298"/>
   <rect class="fil1" x="142" y="583" width="1410" height="178" rx="26" ry="29"/>
   <rect class="fil1" x="1495" y="562" width="56.7684" height="219.609" rx="12" ry="14"/>
   <g>
    <polygon class="fil1" points="158,672 42,605 66,564 182,631 "/>
    <rect class="fil1" x="36" y="550" width="32.0322" height="82.8944" rx="7" ry="5"/>
   </g>
   <g>
    <polygon class="fil1" points="158,672 42,739 66,780 182,713 "/>
    <rect class="fil1" x="36" y="711" width="32.0322" height="82.8944" rx="7" ry="5"/>
   </g>
   <rect class="fil1" x="141" y="562" width="56.7684" height="219.609" rx="12" ry="14"/>
   <rect class="fil4" x="198" y="583" width="16.3304" height="177.728"/>
   <rect class="fil4" x="1479" y="583" width="16.3304" height="177.728"/>
   <g>
    <g>
     <polygon class="fil5" points="1589,504 1535,504 1535,490 1589,490 "/>
    </g>
    <path class="fil3 str0" d="M1472 551l67 0c16,0 29,-13 29,-29l0 -26"/>
    <rect class="fil1" x="1583" y="473" width="20.396" height="47.364" rx="10" ry="10"/>
   </g>
   <g id="_2246434135280">
    <g>
     <polygon class="fil5" points="102,504 102,490 156,490 156,504 "/>
    </g>
    <path class="fil3 str0" d="M423 551l-270 0c-16,0 -29,-13 -29,-29l0 -26"/>
    <rect class="fil1" x="88" y="473" width="20.396" height="47.364" rx="10" ry="10"/>
   </g>
   <rect class="fil6" x="337" y="520" width="223.521" height="61.2105" rx="9" ry="22"/>
   <g>
    <polygon class="fil0" points="51,633 51,550 54,550 54,633 "/>
   </g>
   <g>
    <polygon class="fil0" points="51,794 51,711 54,711 54,794 "/>
   </g>
   <rect class="fil1" x="142" y="339" width="1410" height="178" rx="26" ry="29"/>
   <rect class="fil1" x="141" y="318" width="56.7684" height="219.609" rx="12" ry="14"/>
   <rect class="fil4" x="198" y="339" width="16.3304" height="177.728"/>
   <rect class="fil1" x="1495" y="318" width="56.7684" height="219.609" rx="12" ry="14"/>
   <g>
    <rect class="fil2 str1" x="1061" y="22" width="411" height="567" rx="23" ry="20"/>
    <g>
     <path class="fil7" d="M1159 62c13,0 24,11 24,24 0,13 -11,24 -24,24 -13,0 -23,-11 -23,-24 0,-13 10,-24 23,-24z"/>
     <path id="1" class="fil8" d="M1187 86l-8 0 0 0 0 -1 0 -1 0 -1 -1 -1 0 -1 0 -1 0 -1 -1 -1 0 0 -1 -1 0 -1 -1 -1 0 -1 -1 0 0 -1 -1 -1 -1 0 0 -1 -1 -1 -1 0 -1 -1 -1 0 0 -1 -1 0 -1 0 -1 -1 -1 0 -1 0 -1 0 -1 0 -1 -1 -1 0 0 -8 2 1 1 0 1 0 2 0 1 0 1 1 2 0 1 1 1 0 1 1 1 0 2 1 1 1 1 1 1 1 1 1 1 0 0 1 1 2 1 1 1 1 0 1 1 1 1 1 0 2 0 1 1 1 0 1 0 2 1 1 0 2 0 1 0 0zm-28 28l0 -8 0 0 1 0 1 0 1 -1 1 0 1 0 1 0 1 -1 1 0 1 0 0 -1 1 0 1 -1 1 0 1 -1 0 0 1 -1 1 -1 0 -1 1 0 0 -1 1 -1 0 -1 1 -1 0 0 1 -1 0 -1 0 -1 0 -1 1 -1 0 -1 0 -1 0 -1 8 0 0 1 0 2 -1 1 0 2 0 1 -1 1 0 1 0 2 -1 1 -1 1 0 1 -1 1 -1 1 -1 2 0 1 -1 0 -1 1 -1 1 -1 1 -1 1 -2 1 -1 0 -1 1 -1 0 -1 1 -2 0 -1 1 -1 0 -2 0 -1 0 -1 1 -2 0 0 0zm-27 -28l8 0 0 0 0 1 0 1 0 1 0 1 0 1 0 1 1 1 0 1 0 0 1 1 0 1 1 1 0 1 1 0 1 1 0 1 1 1 1 0 0 1 1 0 1 1 1 0 1 1 1 0 0 0 1 1 1 0 1 0 1 0 1 1 1 0 1 0 0 8 -1 0 -2 -1 -1 0 -1 0 -2 0 -1 -1 -1 0 -2 -1 -1 0 -1 -1 -1 0 -1 -1 -1 -1 -1 -1 -1 -1 -1 -1 -1 0 -1 -1 -1 -1 -1 -2 0 -1 -1 -1 -1 -1 0 -1 -1 -2 0 -1 -1 -1 0 -1 0 -2 0 -1 0 -2 0 -1 0 0zm27 -28l0 8 0 0 -1 0 -1 1 -1 0 -1 0 -1 0 -1 0 -1 1 0 0 -1 0 -1 1 -1 0 -1 1 -1 0 0 1 -1 1 -1 0 0 1 -1 1 -1 0 0 1 -1 1 0 1 -1 1 0 0 0 1 -1 1 0 1 0 1 0 1 0 1 0 1 0 1 -8 0 0 -1 0 -2 0 -1 0 -2 0 -1 1 -1 0 -1 1 -2 0 -1 1 -1 1 -1 0 -1 1 -1 1 -2 1 -1 1 0 1 -1 1 -1 1 -1 1 -1 1 -1 1 0 1 -1 1 0 2 -1 1 0 1 -1 2 0 1 0 1 0 2 0 1 -1 0 0z"/>
    </g>
    <g>
     <path class="fil7" d="M1267 62c13,0 23,11 23,24 0,13 -10,24 -23,24 -13,0 -24,-11 -24,-24 0,-13 11,-24 24,-24z"/>
     <path id="1" class="fil8" d="M1294 86l-8 0 0 0 0 -1 0 -1 0 -1 0 -1 0 -1 0 -1 -1 -1 0 -1 0 0 -1 -1 0 -1 -1 -1 0 -1 -1 0 -1 -1 0 -1 -1 0 -1 -1 0 -1 -1 0 -1 -1 -1 0 -1 -1 -1 0 0 0 -1 -1 -1 0 -1 0 -1 0 -1 0 -1 -1 -1 0 0 -8 1 1 2 0 1 0 1 0 2 0 1 1 1 0 2 1 1 0 1 1 1 0 1 1 1 1 1 1 1 1 1 1 1 0 1 1 1 2 1 1 0 1 1 1 1 1 0 1 1 2 0 1 1 1 0 1 0 2 0 1 0 2 0 1 0 0zm-27 28l0 -8 0 0 1 0 1 0 1 -1 1 0 1 0 1 0 1 -1 0 0 1 0 1 -1 1 0 1 -1 1 0 0 -1 1 0 1 -1 0 -1 1 -1 1 0 0 -1 1 -1 0 -1 1 0 0 -1 0 -1 1 -1 0 -1 0 -1 0 -1 0 -1 0 -1 0 -1 8 0 0 1 0 2 0 1 0 2 0 1 -1 1 0 1 -1 2 0 1 -1 1 -1 1 0 1 -1 2 -1 1 -1 1 -1 0 -1 1 -1 1 -1 1 -1 1 -1 1 -1 0 -1 1 -1 0 -2 1 -1 0 -1 1 -2 0 -1 0 -1 0 -2 1 -1 0 0 0zm-28 -28l8 0 0 0 0 1 0 1 0 1 1 1 0 1 0 1 0 1 1 1 0 0 1 1 0 1 1 1 0 1 1 0 0 1 1 1 1 1 0 0 1 1 1 0 1 1 1 0 0 1 1 0 1 0 1 1 1 0 1 0 1 0 1 1 1 0 1 0 0 8 -2 0 -1 -1 -1 0 -2 0 -1 0 -1 -1 -2 0 -1 -1 -1 0 -1 -1 -1 0 -2 -1 -1 -1 -1 -1 -1 -1 -1 -1 -1 0 0 -1 -1 -2 -1 -1 -1 -1 0 -1 -1 -1 -1 -1 0 -2 0 -1 -1 -1 0 -1 0 -2 -1 -1 0 -2 0 -1 0 0zm28 -28l0 8 0 0 -1 0 -1 1 -1 0 -1 0 -1 0 -1 0 -1 1 -1 0 -1 0 0 1 -1 0 -1 1 -1 0 -1 1 0 1 -1 0 -1 1 0 1 -1 0 0 1 -1 1 0 1 -1 1 0 0 -1 1 0 1 0 1 0 1 -1 1 0 1 0 1 0 1 -8 0 0 -1 0 -2 1 -1 0 -2 0 -1 1 -1 0 -1 0 -2 1 -1 1 -1 0 -1 1 -1 1 -1 1 -2 0 -1 1 0 1 -1 1 -1 1 -1 1 -1 2 -1 1 0 1 -1 1 0 1 -1 2 0 1 -1 1 0 2 0 1 0 1 0 2 -1 0 0z"/>
    </g>
    <g>
     <path class="fil7" d="M1375 62c13,0 23,11 23,24 0,13 -10,24 -23,24 -13,0 -24,-11 -24,-24 0,-13 11,-24 24,-24z"/>
     <path id="1" class="fil8" d="M1402 86l-8 0 0 0 0 -1 0 -1 0 -1 0 -1 0 -1 -1 -1 0 -1 0 -1 -1 0 0 -1 -1 -1 0 -1 -1 -1 0 0 -1 -1 -1 -1 0 0 -1 -1 -1 -1 0 0 -1 -1 -1 0 -1 -1 -1 0 -1 0 -1 -1 -1 0 0 0 -1 0 -1 0 -1 -1 -1 0 0 -8 1 1 1 0 2 0 1 0 1 0 2 1 1 0 1 1 1 0 2 1 1 0 1 1 1 1 1 1 1 1 1 1 1 0 1 1 1 2 0 1 1 1 1 1 0 1 1 1 0 2 1 1 0 1 1 1 0 2 0 1 0 2 0 1 0 0zm-27 28l0 -8 0 0 1 0 1 0 1 -1 1 0 0 0 1 0 1 -1 1 0 1 0 1 -1 1 0 1 -1 0 0 1 -1 1 0 0 -1 1 -1 1 -1 0 0 1 -1 0 -1 1 -1 0 0 1 -1 0 -1 0 -1 1 -1 0 -1 0 -1 0 -1 0 -1 0 -1 8 0 0 1 0 2 0 1 0 2 -1 1 0 1 -1 1 0 2 -1 1 0 1 -1 1 -1 1 0 2 -1 1 -1 1 -1 0 -1 1 -1 1 -1 1 -1 1 -1 1 -1 0 -2 1 -1 0 -1 1 -1 0 -2 1 -1 0 -1 0 -2 0 -1 1 -1 0 0 0zm-28 -28l8 0 0 0 0 1 0 1 0 1 0 1 1 1 0 1 0 1 1 1 0 1 0 0 1 1 0 1 1 1 0 0 1 1 1 1 0 1 1 0 1 1 1 0 0 1 1 0 1 1 1 0 1 0 1 1 1 0 1 0 1 0 1 1 1 0 1 0 0 8 -2 0 -1 -1 -2 0 -1 0 -1 0 -2 -1 -1 0 -1 -1 -1 0 -2 -1 -1 0 -1 -1 -1 -1 -1 -1 -1 -1 -1 -1 -1 0 -1 -1 -1 -1 0 -2 -1 -1 -1 -1 0 -1 -1 -1 0 -2 -1 -1 0 -1 0 -1 -1 -2 0 -1 0 -2 0 -1 0 0zm28 -28l0 8 0 0 -1 0 -1 1 -1 0 -1 0 -1 0 -1 0 -1 1 -1 0 -1 0 -1 1 -1 0 0 1 -1 0 -1 1 -1 1 0 0 -1 1 -1 1 0 0 -1 1 0 1 -1 1 0 1 0 0 -1 1 0 1 0 1 -1 1 0 1 0 1 0 1 0 1 -8 0 0 -1 0 -2 0 -1 1 -2 0 -1 0 -1 1 -1 0 -2 1 -1 0 -1 1 -1 1 -1 0 -1 1 -2 1 -1 1 0 1 -1 1 -1 1 -1 1 -1 1 -1 1 0 2 -1 1 0 1 -1 1 0 2 -1 1 0 1 0 2 0 1 0 2 -1 0 0z"/>
    </g>
    <g>
     <path class="fil1" d="M1197 184l139 0c4,0 7,3 7,7l0 91c0,4 -3,7 -7,7l-139 0c-4,0 -7,-3 -7,-7l0 -91c0,-4 3,-7 7,-7z"/>
     <path id="1" class="fil8" d="M1336 192l-139 0 0 -16 139 0 0 0 0 16zm14 -1l-13 0 0 0 0 0 0 0 0 0 0 0 0 0 0 1 0 0 0 0 0 0 0 0 0 0 0 0 0 0 0 0 0 0 0 0 0 0 0 0 0 0 0 0 0 0 0 0 0 0 0 0 0 0 0 0 0 0 -1 0 0 0 0 0 0 0 0 0 0 -16 1 0 0 0 1 0 1 0 0 0 1 0 1 0 0 1 1 0 0 0 1 1 0 0 1 0 0 1 1 0 0 1 1 0 0 1 1 0 0 1 1 0 0 1 0 1 1 0 0 1 0 1 0 1 1 0 0 1 0 1 0 1 0 1 0 0zm-13 91l0 -91 13 0 0 91 0 0 -13 0zm-1 15l0 -16 0 0 0 0 0 0 0 0 0 0 1 0 0 0 0 0 0 0 0 0 0 0 0 0 0 0 0 0 0 0 0 0 0 0 0 0 0 0 0 0 0 0 0 0 0 0 0 0 0 0 0 0 0 0 0 1 0 0 0 0 0 0 0 0 0 0 13 0 0 1 0 1 0 1 0 0 -1 1 0 1 0 1 0 1 -1 0 0 1 0 1 -1 0 0 1 -1 0 0 1 -1 0 0 1 -1 0 0 1 -1 0 0 0 -1 1 0 0 -1 0 0 1 -1 0 -1 0 0 0 -1 0 -1 0 0 0 -1 0 0 0zm-139 -16l139 0 0 16 -139 0 0 0 0 -16zm-13 1l13 0 0 0 0 0 0 0 0 0 0 0 0 0 0 -1 0 0 0 0 0 0 0 0 -1 0 0 0 0 0 0 0 0 0 0 0 0 0 0 0 1 0 0 0 0 0 0 0 0 0 0 0 0 0 0 0 0 0 0 0 0 0 0 0 0 0 0 0 0 16 0 0 -1 0 -1 0 0 0 -1 0 0 0 -1 0 -1 -1 0 0 -1 0 0 -1 -1 0 0 0 -1 -1 0 0 -1 -1 0 0 -1 -1 0 0 -1 -1 0 0 -1 -1 0 -1 0 0 0 -1 -1 -1 0 -1 0 -1 0 0 0 -1 0 -1 0 -1 0 0zm13 -91l0 91 -13 0 0 -91 0 0 13 0zm0 -15l0 16 0 0 0 0 0 0 0 0 0 0 0 0 0 0 0 0 0 0 0 0 0 0 0 0 0 0 0 0 -1 0 0 0 0 0 0 0 0 0 0 0 0 0 0 0 1 0 0 0 0 0 0 0 0 0 0 -1 0 0 0 0 0 0 0 0 0 0 -13 0 0 -1 0 -1 0 -1 0 -1 0 0 0 -1 1 -1 0 -1 0 0 0 -1 1 -1 0 0 1 -1 0 0 1 -1 0 0 1 -1 0 0 1 -1 0 0 1 0 0 -1 1 0 0 0 1 -1 1 0 0 0 1 0 0 0 1 0 1 0 0 0 0 0z"/>
    </g>
    <rect class="fil6" x="1443" y="272" width="14.4726" height="67.76"/>
   </g>
   <rect class="fil4" x="1479" y="339" width="16.3304" height="177.728"/>
   <rect class="fil6" x="531" y="3" width="50.1356" height="61.7666" rx="9" ry="15"/>
   <g>
    <path class="fil0" d="M541 30c0,-7 7,-13 15,-13 8,0 15,6 15,13l-30 0zm0 553l0 -553 30 0 0 553 -30 0zm30 0c0,7 -7,13 -15,13 -8,0 -15,-6 -15,-13l30 0z"/>
   </g>
  </g>
 </g>
</svg>
