<?xml version="1.0" standalone="no"?><!DOCTYPE svg PUBLIC "-//W3C//DTD SVG 1.1//EN" "http://www.w3.org/Graphics/SVG/1.1/DTD/svg11.dtd"><svg t="1569304173626" class="icon" viewBox="0 0 1024 1024" version="1.1" xmlns="http://www.w3.org/2000/svg" p-id="2080" xmlns:xlink="http://www.w3.org/1999/xlink" width="48" height="48"><defs><style type="text/css"></style></defs><path d="M924.115413 935.003037H100.143528A99.996588 99.996588 0 0 1 0.14694 835.006449V619.013819a99.996588 99.996588 0 0 1 99.996588-99.996588h823.971885a99.996588 99.996588 0 0 1 99.996588 99.996588v215.99263a99.996588 99.996588 0 0 1-99.996588 99.996588zM100.143528 599.014501a19.999318 19.999318 0 0 0-19.999318 19.999318v215.99263a19.999318 19.999318 0 0 0 19.999318 19.999317h823.971885a19.999318 19.999318 0 0 0 19.999318-19.999317V619.013819a19.999318 19.999318 0 0 0-19.999318-19.999318z" fill="" p-id="2081"></path><path d="M219.139468 1024h-9.999659a99.996588 99.996588 0 0 1-99.996588-99.996588v-11.999591a39.998635 39.998635 0 0 1 79.99727 0v11.999591a19.999318 19.999318 0 0 0 19.999318 19.999318h9.999659a19.999318 19.999318 0 0 0 19.999317-19.999318v-11.999591a39.998635 39.998635 0 0 1 79.997271 0v11.999591a99.996588 99.996588 0 0 1-99.996588 99.996588zM814.119166 1024h-9.999658a99.996588 99.996588 0 0 1-99.996588-99.996588v-11.999591a39.998635 39.998635 0 0 1 79.99727 0v11.999591a19.999318 19.999318 0 0 0 19.999318 19.999318h9.999658a19.999318 19.999318 0 0 0 19.999318-19.999318v-11.999591a39.998635 39.998635 0 0 1 79.99727 0v11.999591a99.996588 99.996588 0 0 1-99.996588 99.996588zM861.117563 787.008086a54.998123 54.998123 0 1 1 54.998123-53.998157 54.998123 54.998123 0 0 1-54.998123 53.998157zM729.122067 787.008086a54.998123 54.998123 0 1 1 54.998123-53.998157 54.998123 54.998123 0 0 1-54.998123 53.998157zM598.126536 787.008086a54.998123 54.998123 0 1 1 54.998124-53.998157 54.998123 54.998123 0 0 1-54.998124 53.998157zM304.136568 591.014774a39.998635 39.998635 0 0 1-35.998772-21.999249L4.146804 58.03296a40.248627 40.248627 0 0 1 71.997543-35.998772l263.990992 510.982565a39.998635 39.998635 0 0 1-35.998771 57.998021zM720.122374 591.014774a39.998635 39.998635 0 0 1-35.998772-57.998021L948.114594 22.034188a40.029634 40.029634 0 1 1 70.997578 36.998738L756.121145 569.015525a39.998635 39.998635 0 0 1-35.998771 21.999249zM480.130562 440.019926a39.998635 39.998635 0 0 1-27.999044-67.99768 84.9971 84.9971 0 0 1 119.995905 0 40.303625 40.303625 0 1 1-56.998055 56.998055h-6.999761a39.998635 39.998635 0 0 1-27.999045 10.999625z" fill="" p-id="2082"></path><path d="M390.133633 349.023031a39.998635 39.998635 0 0 1-27.999044-67.99768c82.997168-82.997168 217.992562-82.997168 300.989729 0a40.303625 40.303625 0 1 1-56.998055 56.998055c-51.998226-51.998226-135.99536-51.998226-187.993585 0a39.998635 39.998635 0 0 1-27.999045 10.999625z" fill="" p-id="2083"></path><path d="M730.122032 254.026272a39.998635 39.998635 0 0 1-27.999044-11.99959c-103.996452-103.996452-274.990617-103.996452-378.987069 0a40.303625 40.303625 0 0 1-56.998055-56.998055 347.988126 347.988126 0 0 1 491.983213 0 39.998635 39.998635 0 0 1-27.999045 67.997679z" fill="" p-id="2084"></path></svg>