<?xml version="1.0" encoding="utf-8"?>
<!-- Generator: Adobe Illustrator 16.0.0, SVG Export Plug-In . SVG Version: 6.00 Build 0)  -->
<!DOCTYPE svg PUBLIC "-//W3C//DTD SVG 1.1//EN" "http://www.w3.org/Graphics/SVG/1.1/DTD/svg11.dtd">
<svg version="1.1" id="图层_1" xmlns="http://www.w3.org/2000/svg" xmlns:xlink="http://www.w3.org/1999/xlink" x="0px" y="0px"
	 width="36px" height="36px" viewBox="0 0 36 36" enable-background="new 0 0 36 36" xml:space="preserve">
<path fill="#1362AA" d="M34,28c0,1.657-1.343,3-3,3H5c-1.657,0-3-1.343-3-3V8c0-1.656,1.343-3,3-3h26c1.657,0,3,1.344,3,3V28z"/>
<rect x="13" y="8" fill="#FFFFFF" width="10" height="20"/>
<path fill="#1362AA" d="M22,14h-8v-3h8V14z M15,13h6v-1h-6V13z"/>
<path fill="#1362AA" d="M22,18h-8v-3h8V18z M15,17h6v-1h-6V17z"/>
<rect x="20.376" y="19.084" fill="#1362AA" width="1.416" height="0.875"/>
<rect x="20.376" y="21.084" fill="#1362AA" width="1.416" height="0.875"/>
</svg>
