<?xml version="1.0" encoding="utf-8"?>
<!-- Generator: Adobe Illustrator 16.0.0, SVG Export Plug-In . SVG Version: 6.00 Build 0)  -->
<!DOCTYPE svg PUBLIC "-//W3C//DTD SVG 1.1//EN" "http://www.w3.org/Graphics/SVG/1.1/DTD/svg11.dtd">
<svg version="1.1" id="图层_1" xmlns="http://www.w3.org/2000/svg" xmlns:xlink="http://www.w3.org/1999/xlink" x="0px" y="0px"
	 width="36px" height="36px" viewBox="0 0 36 36" enable-background="new 0 0 36 36" xml:space="preserve">
<path fill="#1362AA" d="M34,28c0,1.657-1.343,3-3,3H5c-1.657,0-3-1.343-3-3V8c0-1.657,1.343-3,3-3h26c1.657,0,3,1.343,3,3V28z"/>
<g>
	<rect x="13" y="9" fill="#EC6617" width="11" height="2"/>
	<rect x="13" y="12" fill="#EC6617" width="5" height="2"/>
	<rect x="19" y="12" fill="#EC6617" width="5" height="2"/>
	<rect x="13" y="15" fill="#EC6617" width="11" height="2"/>
	<rect x="13" y="18" fill="#EC6617" width="5" height="2"/>
	<rect x="19" y="18" fill="#EC6617" width="5" height="2"/>
	<rect x="13" y="21" fill="#EC6617" width="11" height="2"/>
	<rect x="13" y="24" fill="#EC6617" width="5" height="2"/>
	<rect x="19" y="24" fill="#EC6617" width="5" height="2"/>
</g>
<polygon fill="#FCFCFC" points="31.084,15.5 28,13.5 28,14 25,14 25,16 28,16 28,17.5 "/>
<polygon fill="#FCFCFC" points="31.084,21.5 28,19.5 28,20 25,20 25,22 28,22 28,23.5 "/>
<polygon fill="#FCFCFC" points="12.084,18.5 9,16.5 9,17 6,17 6,19 9,19 9,20.5 "/>
<polygon fill="#FCFCFC" points="11.109,14.65 10.343,11.056 9.636,11.763 7.514,9.642 6.1,11.056 8.222,13.177 7.514,13.884 "/>
<polygon fill="#FCFCFC" points="11.108,21.348 7.515,22.115 8.222,22.822 6.101,24.943 7.515,26.357 9.636,24.236 10.343,24.943 "/>
</svg>
