<?xml version="1.0" encoding="UTF-8"?>
<!DOCTYPE svg PUBLIC "-//W3C//DTD SVG 1.1//EN" "http://www.w3.org/Graphics/SVG/1.1/DTD/svg11.dtd">
<!-- Creator: CorelDRAW X7 -->
<svg xmlns="http://www.w3.org/2000/svg" xml:space="preserve" width="8.4666mm" height="4.4026mm" version="1.1" style="shape-rendering:geometricPrecision; text-rendering:geometricPrecision; image-rendering:optimizeQuality; fill-rule:evenodd; clip-rule:evenodd"
viewBox="0 0 847 440"
 xmlns:xlink="http://www.w3.org/1999/xlink">
 <defs>
  <style type="text/css">
   <![CDATA[
    .str0 {stroke:#00CCFF;stroke-width:33.86;animation:myfirst .6s;animation-iteration-count: infinite;}
    .fil0 {fill:none}
    .fil1 {fill:#00CCFF;animation:myfirst-1 .6s;animation-iteration-count: infinite;}
@keyframes myfirst
    {
     0% {stroke:red;}
     50% {stroke:none;}
     100%{stroke:red;}
    }
@keyframes myfirst-1
    {
     0% {fill:red;}
     50% {fill:none;}
     100%{fill:red;}
    }
   ]]>
  </style>
 </defs>
 <g id="图层_x0020_1">
  <metadata id="CorelCorpID_0Corel-Layer"/>
  <g id="_1828549179696">
   <rect class="fil0 str0" x="17" y="17" width="813" height="406"/>
   <path class="fil1" d="M147 326l0 -212 69 0c26,0 43,1 51,4 12,3 22,10 30,20 8,11 12,25 12,41 0,13 -2,24 -7,33 -4,9 -10,16 -18,21 -7,5 -14,8 -22,10 -10,2 -25,3 -44,3l-28 0 0 80 -43 0zm43 -176l0 60 24 0c16,0 28,-1 33,-3 6,-2 10,-6 13,-10 4,-5 5,-11 5,-17 0,-8 -2,-14 -6,-19 -5,-5 -11,-8 -18,-9 -5,-1 -15,-2 -30,-2l-21 0zm144 -36l78 0c18,0 31,2 40,4 13,4 23,11 32,20 9,9 16,21 20,34 5,14 7,30 7,50 0,18 -2,33 -6,45 -6,16 -13,28 -23,38 -7,7 -17,12 -30,16 -9,3 -22,5 -38,5l-80 0 0 -212zm43 36l0 140 32 0c12,0 20,-1 26,-2 6,-2 12,-5 17,-9 4,-4 8,-11 11,-20 3,-10 4,-22 4,-39 0,-16 -1,-29 -4,-37 -3,-9 -7,-16 -12,-21 -5,-5 -12,-8 -20,-10 -6,-1 -17,-2 -35,-2l-19 0zm160 -36l43 0 0 115c0,18 1,30 2,35 2,9 6,16 13,21 7,5 16,8 28,8 12,0 21,-2 27,-7 6,-5 9,-11 11,-19 1,-7 2,-19 2,-36l0 -117 42 0 0 112c0,25 -1,43 -3,53 -2,11 -7,20 -13,27 -6,7 -14,13 -25,17 -10,5 -23,7 -40,7 -20,0 -35,-3 -46,-7 -10,-5 -18,-11 -25,-18 -6,-8 -10,-16 -11,-24 -3,-12 -5,-30 -5,-54l0 -113z"/>
  </g>
 </g>
</svg>
