<?xml version="1.0" encoding="UTF-8"?>
<!DOCTYPE svg PUBLIC "-//W3C//DTD SVG 1.1//EN" "http://www.w3.org/Graphics/SVG/1.1/DTD/svg11.dtd">
<!-- Creator: CorelDRAW X7 -->
<svg xmlns="http://www.w3.org/2000/svg" xml:space="preserve" width="8.4566mm" height="4.3928mm" version="1.1" style="shape-rendering:geometricPrecision; text-rendering:geometricPrecision; image-rendering:optimizeQuality; fill-rule:evenodd; clip-rule:evenodd"
viewBox="0 0 812 422"
 xmlns:xlink="http://www.w3.org/1999/xlink">
 <defs>
  <style type="text/css">
   <![CDATA[
    .str0 {stroke:#00CCFF;stroke-width:32.5099;animation:myfirst .6s;animation-iteration-count: infinite;}
    .fil0 {fill:none}
    .fil1 {fill:#00CCFF;animation:myfirst-1 .6s;animation-iteration-count: infinite;}
@keyframes myfirst
    {
     0% {stroke:red;}
     50% {stroke:none;}
     100%{stroke:red;}
    }
@keyframes myfirst-1
    {
     0% {fill:red;}
     50% {fill:none;}
     100%{fill:red;}
    }
   ]]>
  </style>
 </defs>
 <g id="图层_x0020_1">
  <metadata id="CorelCorpID_0Corel-Layer"/>
  <g id="_1828100972080">
   <rect class="fil0 str0" x="16" y="16" width="780" height="389"/>
   <path class="fil1" d="M150 110l42 0 0 110c0,17 0,28 1,34 2,8 6,14 13,19 6,6 14,8 26,8 11,0 21,-2 26,-7 6,-5 9,-11 10,-17 2,-8 2,-19 2,-35l0 -112 42 0 0 106c0,25 -1,42 -4,52 -2,10 -6,19 -12,25 -6,8 -14,13 -24,17 -9,5 -23,6 -39,6 -19,0 -34,-2 -44,-6 -9,-5 -17,-11 -23,-18 -6,-7 -10,-14 -12,-23 -3,-12 -4,-28 -4,-51l0 -108 0 0zm196 203l0 -203 65 0c25,0 40,1 49,3 11,3 21,9 28,19 9,10 12,24 12,40 0,13 -2,23 -6,31 -5,9 -10,16 -18,20 -6,5 -14,9 -21,11 -10,1 -24,2 -42,2l-27 0 0 77 -40 0 0 0zm40 -169l0 58 22 0c17,0 27,-2 32,-3 6,-2 11,-6 13,-11 4,-4 5,-9 5,-15 0,-8 -2,-14 -7,-19 -3,-4 -9,-7 -16,-9 -5,-1 -15,-1 -30,-1l-19 0 0 0zm127 102l41 -3c1,14 7,23 14,29 8,7 17,9 30,9 13,0 23,-2 29,-8 7,-5 10,-12 10,-19 0,-5 -1,-9 -4,-12 -3,-4 -8,-7 -15,-9 -5,-2 -16,-5 -32,-9 -22,-5 -38,-13 -46,-20 -13,-12 -19,-25 -19,-41 0,-11 3,-21 9,-29 6,-9 14,-16 25,-21 11,-5 24,-7 40,-7 25,0 44,6 57,17 13,11 19,26 20,45l-41 1c-2,-10 -6,-17 -11,-22 -6,-5 -14,-7 -26,-7 -12,0 -21,2 -28,7 -3,4 -6,7 -6,13 0,4 2,9 6,13 5,3 18,8 38,13 20,4 34,10 43,14 11,6 18,12 24,22 5,8 7,19 7,32 0,11 -3,22 -9,32 -7,10 -16,17 -28,23 -12,5 -27,7 -44,7 -26,0 -45,-6 -59,-17 -14,-12 -22,-30 -25,-53l0 0z"/>
  </g>
 </g>
</svg>
