<?xml version="1.0" encoding="UTF-8"?>
<!DOCTYPE svg PUBLIC "-//W3C//DTD SVG 1.1//EN" "http://www.w3.org/Graphics/SVG/1.1/DTD/svg11.dtd">
<!-- Creator: CorelDRAW X7 -->
<svg xmlns="http://www.w3.org/2000/svg" xml:space="preserve" width="8.4666mm" height="4.2332mm" version="1.1" style="shape-rendering:geometricPrecision; text-rendering:geometricPrecision; image-rendering:optimizeQuality; fill-rule:evenodd; clip-rule:evenodd"
viewBox="0 0 847 423"
 xmlns:xlink="http://www.w3.org/1999/xlink">
 <defs>
  <style type="text/css">
   <![CDATA[
    .str0 {stroke:#00CCFF;stroke-width:33.86}
    .fil0 {fill:none}
    .fil1 {fill:#00CCFF}
   ]]>
  </style>
 </defs>
 <g id="图层_x0020_1">
  <metadata id="CorelCorpID_0Corel-Layer"/>
  <g id="_1828100972080">
   <rect class="fil0 str0" width="847" height="423"/>
   <path class="fil1" d="M136 102l45 0 0 119c0,19 0,31 1,37 2,9 7,16 14,21 7,6 16,9 29,9 12,0 22,-3 28,-8 6,-5 10,-12 11,-19 2,-8 2,-20 2,-38l0 -121 45 0 0 115c0,27 -1,46 -4,56 -2,11 -6,21 -13,28 -6,8 -15,14 -26,18 -10,5 -25,7 -42,7 -21,0 -37,-3 -48,-7 -10,-5 -19,-12 -25,-19 -7,-8 -11,-16 -13,-25 -3,-13 -4,-31 -4,-56l0 -117zm212 220l0 -220 71 0c27,0 44,1 53,3 12,3 23,10 31,21 9,11 13,26 13,43 0,14 -2,25 -7,34 -5,10 -11,17 -19,22 -7,5 -15,9 -23,11 -11,2 -26,3 -46,3l-29 0 0 83 -44 0zm44 -183l0 63 24 0c18,0 29,-2 35,-4 6,-2 11,-6 14,-11 4,-5 5,-10 5,-17 0,-8 -2,-15 -7,-20 -4,-5 -10,-8 -18,-10 -5,-1 -16,-1 -32,-1l-21 0zm138 111l44 -4c2,15 8,25 16,32 8,7 18,10 32,10 14,0 25,-3 32,-9 7,-6 11,-13 11,-21 0,-5 -2,-10 -5,-13 -3,-4 -8,-7 -16,-10 -5,-2 -17,-5 -35,-9 -24,-6 -41,-14 -50,-22 -14,-13 -20,-27 -20,-45 0,-11 3,-22 9,-31 7,-10 16,-18 28,-23 12,-5 26,-7 43,-7 27,0 48,6 62,18 14,12 21,28 22,49l-45 1c-2,-11 -6,-19 -12,-24 -6,-5 -15,-8 -28,-8 -13,0 -23,3 -30,8 -4,4 -7,8 -7,14 0,5 2,10 7,14 5,4 19,9 41,14 21,5 37,11 47,16 11,6 19,13 25,23 6,9 8,21 8,35 0,12 -3,24 -10,35 -7,11 -17,19 -30,25 -13,5 -29,8 -48,8 -28,0 -49,-7 -64,-19 -15,-13 -24,-32 -27,-57z"/>
  </g>
 </g>
</svg>
