<?xml version="1.0" encoding="UTF-8"?>
<!DOCTYPE svg PUBLIC "-//W3C//DTD SVG 1.1//EN" "http://www.w3.org/Graphics/SVG/1.1/DTD/svg11.dtd">
<!-- Creator: CorelDRAW X7 -->
<svg xmlns="http://www.w3.org/2000/svg" xml:space="preserve" width="8.4666mm" height="8.4666mm" version="1.1" style="shape-rendering:geometricPrecision; text-rendering:geometricPrecision; image-rendering:optimizeQuality; fill-rule:evenodd; clip-rule:evenodd"
viewBox="0 0 847 847"
 xmlns:xlink="http://www.w3.org/1999/xlink">
 <defs>
  <style type="text/css">
   <![CDATA[
    .fil0 {fill:#00CCFF}
   ]]>
  </style>
 </defs>
 <g id="图层_x0020_1">
  <metadata id="CorelCorpID_0Corel-Layer"/>
  <g id="_1828241188848">
   <path class="fil0" d="M526 471l-67 67c0,0 0,0 0,1 -6,5 -6,14 0,19 5,5 14,5 19,0 0,0 0,-1 1,-1l40 -41 20 -19c0,0 13,12 13,12 5,2 12,2 16,-3 5,-5 5,-14 0,-19l-10 -9c0,0 -2,-2 -3,-3 -8,-8 -20,-10 -29,-4l0 0zm55 67l6 7c5,5 14,5 19,0 5,-6 5,-14 0,-20l-6 -6c0,0 0,0 0,0 -6,-5 -14,-5 -20,0 -5,5 -5,14 0,19 0,0 0,0 1,0zm-322 -242c0,30 25,55 55,55 30,0 55,-25 55,-55 0,-30 -25,-55 -55,-55 -30,0 -55,25 -55,55l0 0zm73 0c0,10 -8,18 -18,18 -10,0 -18,-8 -18,-18 0,-10 8,-18 18,-18 10,0 18,8 18,18z"/>
   <path class="fil0" d="M660 361l0 126 -98 -104c-3,-8 -11,-14 -21,-14 -8,0 -15,5 -19,12l-133 133c-4,2 -4,2 -8,0l-75 -62c-4,-6 -11,-9 -18,-9 -4,0 -8,1 -11,2l-3 3c-1,1 -2,2 -3,3l-84 80 0 -308c0,-20 16,-36 36,-36l401 0c20,0 36,16 36,36l0 48 36 0 0 -48c0,-40 -32,-73 -72,-73l-401 0c-40,0 -73,33 -73,73l0 400c0,41 33,73 73,73l400 0c40,0 73,-32 73,-73l0 -262 -36 0zm0 262c0,21 -17,37 -37,37l-400 0c-20,0 -36,-16 -36,-37l0 -43 97 -92c3,-3 5,-3 8,0l75 61c6,4 13,10 18,10 6,0 12,-2 19,-9l135 -135c1,0 2,0 2,0l1 0 117 126 0 82 1 0z"/>
  </g>
 </g>
</svg>
