<?xml version="1.0" encoding="utf-8"?>
<!-- Generator: Adobe Illustrator 16.0.0, SVG Export Plug-In . SVG Version: 6.00 Build 0)  -->
<!DOCTYPE svg PUBLIC "-//W3C//DTD SVG 1.1//EN" "http://www.w3.org/Graphics/SVG/1.1/DTD/svg11.dtd">
<svg version="1.1" id="图层_1" xmlns="http://www.w3.org/2000/svg" xmlns:xlink="http://www.w3.org/1999/xlink" x="0px" y="0px"
	 width="36px" height="36px" viewBox="0 0 36 36" enable-background="new 0 0 36 36" xml:space="preserve">
<path fill="#1362AA" d="M25.375,12.301c0,0-1.873-2.572-7.374-2.572s-6.563,2.572-6.563,2.572s-9.334-0.299-9.334,5.471
	c0,3.457,4.271,4.145,4.271,4.145s1.062,2.852,4.938,3.375c3.875,0.525,5.375-1.125,5.375-1.125s1.688,1.65,5.375,1.65
	s6.062-3.65,6.062-3.65s5.772-0.75,5.772-4.688S29.312,12.496,25.375,12.301z"/>
<g>
	<path fill="#FFFFFF" d="M7.934,19.514H6.938v-4.316h0.996V19.514z"/>
	<path fill="#FFFFFF" d="M10.258,17.99H9.535v1.523H8.559v-4.316h1.797c1.042,0.027,1.582,0.482,1.621,1.367
		C11.989,17.516,11.417,17.99,10.258,17.99z M10.18,15.959H9.535v1.289h0.645c0.508-0.012,0.769-0.227,0.781-0.645
		C10.948,16.188,10.688,15.973,10.18,15.959z"/>
	<path fill="#FFFFFF" d="M14.027,20.021h-0.742c-0.625-0.689-0.938-1.535-0.938-2.539c0.013-0.977,0.325-1.842,0.938-2.598h0.742
		c-0.56,0.77-0.84,1.635-0.84,2.598C13.188,18.447,13.468,19.293,14.027,20.021z"/>
	<path fill="#FFFFFF" d="M18.559,15.197l-1.621,4.316h-1.094l-1.641-4.316h1.055l1.016,3.027c0.039,0.145,0.085,0.287,0.137,0.43
		c0.065-0.195,0.11-0.344,0.137-0.449l0.957-3.008H18.559z"/>
	<path fill="#FFFFFF" d="M20.57,17.99h-0.723v1.523h-0.977v-4.316h1.797c1.042,0.027,1.582,0.482,1.621,1.367
		C22.302,17.516,21.729,17.99,20.57,17.99z M20.492,15.959h-0.645v1.289h0.645c0.508-0.012,0.769-0.227,0.781-0.645
		C21.261,16.188,21,15.973,20.492,15.959z"/>
	<path fill="#FFFFFF" d="M26.625,19.514h-0.996l-1.699-2.695c-0.117-0.195-0.195-0.332-0.234-0.41
		c0.013,0.195,0.02,0.443,0.02,0.742v2.363h-0.918v-4.316h1.055l1.641,2.656c0.117,0.17,0.195,0.312,0.234,0.43v-0.02
		c-0.013-0.143-0.02-0.363-0.02-0.664v-2.402h0.918V19.514z"/>
	<path fill="#FFFFFF" d="M27.875,20.021h-0.762c0.573-0.729,0.859-1.568,0.859-2.52c0-0.949-0.28-1.822-0.84-2.617h0.742
		c0.638,0.756,0.95,1.629,0.938,2.617C28.825,18.479,28.513,19.318,27.875,20.021z"/>
</g>
</svg>
