<?xml version="1.0" encoding="utf-8"?>
<!-- Generator: Adobe Illustrator 16.0.0, SVG Export Plug-In . SVG Version: 6.00 Build 0)  -->
<!DOCTYPE svg PUBLIC "-//W3C//DTD SVG 1.1//EN" "http://www.w3.org/Graphics/SVG/1.1/DTD/svg11.dtd">
<svg version="1.1" id="图层_1" xmlns="http://www.w3.org/2000/svg" xmlns:xlink="http://www.w3.org/1999/xlink" x="0px" y="0px"
	 width="36px" height="36px" viewBox="0 0 36 36" enable-background="new 0 0 36 36" xml:space="preserve">
<path fill="#1362AA" d="M25.375,12.301c0,0-1.873-2.572-7.374-2.572s-6.563,2.572-6.563,2.572s-9.334-0.299-9.334,5.471
	c0,3.457,4.271,4.145,4.271,4.145s1.062,2.852,4.938,3.375c3.875,0.525,5.375-1.125,5.375-1.125s1.688,1.65,5.375,1.65
	s6.062-3.65,6.062-3.65s5.772-0.75,5.772-4.688S29.312,12.496,25.375,12.301z"/>
<g>
	<path fill="#FFFFFF" d="M14.213,20.514H9.758v-5.18h1.366V19.6h3.089V20.514z"/>
	<path fill="#FFFFFF" d="M20.581,20.514h-1.503l-0.438-1.125h-2.296l-0.438,1.125h-1.476l2.241-5.18h1.64L20.581,20.514z
		 M18.395,18.498l-0.765-1.781c-0.055-0.156-0.101-0.305-0.137-0.445h-0.027c-0.019,0.125-0.064,0.281-0.137,0.469l-0.684,1.758
		H18.395z"/>
	<path fill="#FFFFFF" d="M26.402,20.514h-1.394l-2.378-3.234c-0.164-0.234-0.273-0.398-0.328-0.492
		c0.019,0.234,0.027,0.531,0.027,0.891v2.836h-1.284v-5.18h1.476l2.296,3.188c0.164,0.203,0.273,0.375,0.328,0.516v-0.023
		c-0.019-0.172-0.027-0.438-0.027-0.797v-2.883h1.284V20.514z"/>
</g>
</svg>
