<?xml version="1.0" encoding="utf-8"?>
<!-- Generator: Adobe Illustrator 16.0.0, SVG Export Plug-In . SVG Version: 6.00 Build 0)  -->
<!DOCTYPE svg PUBLIC "-//W3C//DTD SVG 1.1//EN" "http://www.w3.org/Graphics/SVG/1.1/DTD/svg11.dtd">
<svg version="1.1" id="图层_1" xmlns="http://www.w3.org/2000/svg" xmlns:xlink="http://www.w3.org/1999/xlink" x="0px" y="0px"
	 width="36px" height="36px" viewBox="0 0 36 36" enable-background="new 0 0 36 36" xml:space="preserve">
<path fill="#1362AA" d="M25.375,12.301c0,0-1.873-2.572-7.374-2.572s-6.563,2.572-6.563,2.572s-9.334-0.299-9.334,5.471
	c0,3.457,4.271,4.145,4.271,4.145s1.062,2.852,4.938,3.375c3.875,0.525,5.375-1.125,5.375-1.125s1.688,1.65,5.375,1.65
	s6.062-3.65,6.062-3.65s5.772-0.75,5.772-4.688S29.312,12.496,25.375,12.301z"/>
<g>
	<path fill="#FFFFFF" d="M7.934,19.514H6.938v-4.316h0.996V19.514z"/>
	<path fill="#FFFFFF" d="M11.586,19.494h-0.957v-1.719c0.013-0.469-0.176-0.695-0.566-0.684c-0.391,0.027-0.593,0.268-0.605,0.723
		v1.68H8.5v-3.066h0.957v0.469c0.247-0.338,0.579-0.52,0.996-0.547c0.769-0.012,1.146,0.41,1.133,1.27V19.494z"/>
	<path fill="#FFFFFF" d="M12.426,18.615v-1.484h-0.488v-0.703h0.488v-1.055l0.938-0.195v1.25h0.742v0.703h-0.742v1.25
		c0,0.34,0.124,0.502,0.371,0.488c0.091,0,0.183-0.025,0.273-0.078l0.195,0.605c-0.222,0.117-0.481,0.176-0.781,0.176
		C12.745,19.586,12.413,19.268,12.426,18.615z"/>
	<path fill="#FFFFFF" d="M17.797,18.01v0.234h-2.402c0.039,0.418,0.3,0.645,0.781,0.684c0.364,0,0.586-0.123,0.664-0.371
		l1.016,0.117c-0.247,0.6-0.801,0.898-1.66,0.898c-1.12-0.039-1.706-0.553-1.758-1.543c0.052-1.08,0.599-1.641,1.641-1.68
		C17.211,16.363,17.784,16.916,17.797,18.01z M15.375,17.658h1.504c-0.039-0.402-0.286-0.625-0.742-0.664
		C15.668,17.021,15.414,17.242,15.375,17.658z"/>
	<path fill="#FFFFFF" d="M20.59,16.506l-0.312,0.801c-0.104-0.078-0.234-0.117-0.391-0.117c-0.417,0.014-0.632,0.273-0.645,0.781
		v1.523h-0.938v-3.066h0.938v0.566c0.156-0.43,0.43-0.645,0.82-0.645C20.271,16.363,20.446,16.416,20.59,16.506z"/>
	<path fill="#FFFFFF" d="M23.969,19.494h-0.957v-1.719c0.013-0.469-0.176-0.695-0.566-0.684c-0.391,0.027-0.593,0.268-0.605,0.723
		v1.68h-0.957v-3.066h0.957v0.469c0.247-0.338,0.579-0.52,0.996-0.547c0.769-0.012,1.146,0.41,1.133,1.27V19.494z"/>
	<path fill="#FFFFFF" d="M27.777,18.01v0.234h-2.402c0.039,0.418,0.3,0.645,0.781,0.684c0.364,0,0.586-0.123,0.664-0.371
		l1.016,0.117c-0.247,0.6-0.801,0.898-1.66,0.898c-1.12-0.039-1.706-0.553-1.758-1.543c0.052-1.08,0.599-1.641,1.641-1.68
		C27.191,16.363,27.765,16.916,27.777,18.01z M25.355,17.658h1.504c-0.039-0.402-0.286-0.625-0.742-0.664
		C25.648,17.021,25.395,17.242,25.355,17.658z"/>
	<path fill="#FFFFFF" d="M28.578,18.615v-1.484H28.09v-0.703h0.488v-1.055l0.938-0.195v1.25h0.742v0.703h-0.742v1.25
		c0,0.34,0.124,0.502,0.371,0.488c0.091,0,0.183-0.025,0.273-0.078l0.195,0.605c-0.222,0.117-0.481,0.176-0.781,0.176
		C28.897,19.586,28.565,19.268,28.578,18.615z"/>
</g>
</svg>
