<?xml version="1.0" encoding="utf-8"?>
<!-- Generator: Adobe Illustrator 16.0.0, SVG Export Plug-In . SVG Version: 6.00 Build 0)  -->
<!DOCTYPE svg PUBLIC "-//W3C//DTD SVG 1.1//EN" "http://www.w3.org/Graphics/SVG/1.1/DTD/svg11.dtd">
<svg version="1.1" id="图层_1" xmlns="http://www.w3.org/2000/svg" xmlns:xlink="http://www.w3.org/1999/xlink" x="0px" y="0px"
	 width="36px" height="36px" viewBox="0 0 36 36" enable-background="new 0 0 36 36" xml:space="preserve">
<path fill="#1362AA" d="M25.125,12.551c0,0-1.873-2.572-7.374-2.572s-6.563,2.572-6.563,2.572s-9.334-0.299-9.334,5.471
	c0,3.457,4.271,4.145,4.271,4.145s1.062,2.852,4.938,3.375c3.875,0.525,5.375-1.125,5.375-1.125s1.688,1.65,5.375,1.65
	s6.062-3.65,6.062-3.65s5.772-0.75,5.772-4.688S29.062,12.746,25.125,12.551z"/>
<g>
	<path fill="#FFFFFF" d="M8.548,19.123l1.396-0.211c0.114,0.703,0.588,1.055,1.424,1.055c0.626-0.016,0.958-0.219,0.996-0.609
		c0-0.297-0.219-0.516-0.654-0.656c-0.456-0.125-0.874-0.227-1.253-0.305c-1.158-0.203-1.719-0.695-1.68-1.477
		c0.113-0.875,0.882-1.344,2.306-1.406c1.48-0.016,2.354,0.469,2.619,1.453l-1.395,0.234c-0.096-0.516-0.484-0.773-1.168-0.773
		c-0.55,0.016-0.845,0.18-0.882,0.492c-0.039,0.297,0.332,0.516,1.11,0.656c0.55,0.094,1.043,0.234,1.48,0.422
		c0.664,0.281,1.006,0.719,1.024,1.312c-0.057,1-0.882,1.516-2.477,1.547C9.782,20.873,8.833,20.295,8.548,19.123z"/>
	<path fill="#FFFFFF" d="M20.507,20.764H18.94l-0.455-1.125h-2.392l-0.456,1.125h-1.537l2.335-5.18h1.708L20.507,20.764z
		 M18.229,18.748l-0.797-1.781c-0.057-0.156-0.104-0.305-0.143-0.445h-0.028c-0.019,0.125-0.066,0.281-0.143,0.469l-0.711,1.758
		H18.229z"/>
	<path fill="#FFFFFF" d="M26.57,20.764h-1.452l-2.477-3.234c-0.171-0.234-0.285-0.398-0.342-0.492
		c0.019,0.234,0.028,0.531,0.028,0.891v2.836H20.99v-5.18h1.537l2.392,3.188c0.171,0.203,0.285,0.375,0.342,0.516v-0.023
		c-0.02-0.172-0.028-0.438-0.028-0.797v-2.883h1.338V20.764z"/>
</g>
</svg>
