<?xml version="1.0" encoding="utf-8"?>
<!-- Generator: Adobe Illustrator 16.0.0, SVG Export Plug-In . SVG Version: 6.00 Build 0)  -->
<!DOCTYPE svg PUBLIC "-//W3C//DTD SVG 1.1//EN" "http://www.w3.org/Graphics/SVG/1.1/DTD/svg11.dtd">
<svg version="1.1" id="图层_1" xmlns="http://www.w3.org/2000/svg" xmlns:xlink="http://www.w3.org/1999/xlink" x="0px" y="0px"
	 width="36px" height="36px" viewBox="0 0 36 36" enable-background="new 0 0 36 36" xml:space="preserve">
<path fill="#1362AA" d="M25.625,13.051c0,0-1.873-2.572-7.374-2.572s-6.563,2.572-6.563,2.572s-9.334-0.299-9.334,5.471
	c0,3.457,4.271,4.145,4.271,4.145s1.062,2.852,4.938,3.375c3.875,0.525,5.375-1.125,5.375-1.125s1.688,1.65,5.375,1.65
	s6.062-3.65,6.062-3.65s5.772-0.75,5.772-4.688S29.562,13.246,25.625,13.051z"/>
<g>
	<path fill="#FFFFFF" d="M16.325,16.084l-1.367,5.18h-1.595l-0.968-3.305c-0.057-0.172-0.095-0.367-0.113-0.586
		c-0.02,0.25-0.058,0.445-0.114,0.586l-1.025,3.305H9.491l-1.366-5.18h1.452l0.712,3.469c0.019,0.078,0.037,0.227,0.057,0.445
		c0-0.047,0.01,0.008,0.028,0.164h0.028c0.038-0.234,0.076-0.438,0.114-0.609l0.968-3.469h1.509l1.025,3.516
		c0,0.016,0.01,0.047,0.028,0.094c0.038,0.188,0.057,0.344,0.057,0.469h0.029c0.019-0.188,0.047-0.383,0.085-0.586l0.684-3.492
		H16.325z"/>
	<path fill="#FFFFFF" d="M22.702,21.264h-1.566l-0.455-1.125h-2.392l-0.456,1.125h-1.537l2.335-5.18h1.708L22.702,21.264z
		 M20.424,19.248l-0.797-1.781c-0.057-0.156-0.104-0.305-0.143-0.445h-0.028c-0.019,0.125-0.066,0.281-0.143,0.469l-0.711,1.758
		H20.424z"/>
	<path fill="#FFFFFF" d="M28.767,21.264h-1.452l-2.477-3.234c-0.171-0.234-0.285-0.398-0.342-0.492
		c0.019,0.234,0.028,0.531,0.028,0.891v2.836h-1.338v-5.18h1.537l2.392,3.188c0.171,0.203,0.285,0.375,0.342,0.516v-0.023
		c-0.02-0.172-0.028-0.438-0.028-0.797v-2.883h1.338V21.264z"/>
</g>
</svg>
