<?xml version="1.0" encoding="UTF-8"?>
<!DOCTYPE svg PUBLIC "-//W3C//DTD SVG 1.1//EN" "http://www.w3.org/Graphics/SVG/1.1/DTD/svg11.dtd">
<!-- Creator: CorelDRAW X7 -->
<svg xmlns="http://www.w3.org/2000/svg" xml:space="preserve" width="6.9426mm" height="8.4666mm" version="1.1" style="shape-rendering:geometricPrecision; text-rendering:geometricPrecision; image-rendering:optimizeQuality; fill-rule:evenodd; clip-rule:evenodd"
viewBox="0 0 694 847"
 xmlns:xlink="http://www.w3.org/1999/xlink">
 <defs>
  <style type="text/css">
   <![CDATA[
    .str0 {stroke:#00CCFF;stroke-width:42.33}
    .fil0 {fill:none}
    .fil1 {fill:#00CCFF}
   ]]>
  </style>
 </defs>
 <g id="图层_x0020_1">
  <metadata id="CorelCorpID_0Corel-Layer"/>
  <g id="_1828673493840">
   <polyline class="fil0 str0" points="24,226 295,618 295,849 "/>
   <line class="fil0 str0" x1="207" y1="66" x2="382" y2= "241" />
   <line class="fil0 str0" x1="382" y1="66" x2="207" y2= "241" />
   <line class="fil0 str0" x1="295" y1="0" x2="295" y2= "159" />
   <path class="fil1" d="M463 571l-40 0 0 -152c-15,14 -32,24 -52,31l0 -37c11,-3 22,-10 34,-19 13,-10 21,-21 26,-34l32 0 0 211zm59 0l0 -210 69 0c25,0 42,1 50,3 12,3 22,10 30,21 8,10 12,24 12,41 0,13 -2,24 -7,32 -4,9 -10,16 -17,21 -8,5 -15,8 -22,10 -11,2 -25,3 -44,3l-28 0 0 79 -43 0zm43 -174l0 60 23 0c17,0 28,-2 34,-4 5,-2 10,-5 13,-10 3,-5 5,-10 5,-17 0,-7 -3,-14 -7,-18 -5,-5 -10,-9 -17,-10 -5,-1 -15,-1 -31,-1l-20 0z"/>
  </g>
 </g>
</svg>
