<?xml version="1.0" encoding="UTF-8"?>
<!DOCTYPE svg PUBLIC "-//W3C//DTD SVG 1.1//EN" "http://www.w3.org/Graphics/SVG/1.1/DTD/svg11.dtd">
<!-- Creator: CorelDRAW X7 -->
<svg xmlns="http://www.w3.org/2000/svg" xml:space="preserve" width="8.4666mm" height="2.8786mm" version="1.1" style="shape-rendering:geometricPrecision; text-rendering:geometricPrecision; image-rendering:optimizeQuality; fill-rule:evenodd; clip-rule:evenodd"
viewBox="0 0 847 288"
 xmlns:xlink="http://www.w3.org/1999/xlink">
 <defs>
  <style type="text/css">
   <![CDATA[
    .str0 {stroke:#00CCFF;stroke-width:16.93}
    .fil0 {fill:none}
   ]]>
  </style>
 </defs>
 <g id="图层_x0020_1">
  <metadata id="CorelCorpID_0Corel-Layer"/>
  <g id="_1828687591312">
   <line class="fil0 str0" x1="747" y1="2" x2="747" y2= "286" />
   <line class="fil0 str0" x1="466" y1="2" x2="466" y2= "286" />
   <line class="fil0 str0" x1="186" y1="2" x2="186" y2= "286" />
   <rect class="fil0 str0" transform="matrix(-0.490326 -0.490326 -0.490326 0.490326 309.592 143.928)" width="253" height="253" rx="127" ry="127"/>
   <line class="fil0 str0" x1="613" y1="102" x2="645" y2= "201" />
   <line class="fil0 str0" x1="573" y1="102" x2="604" y2= "201" />
   <line class="fil0 str0" x1="334" y1="102" x2="366" y2= "201" />
   <line class="fil0 str0" x1="294" y1="102" x2="326" y2= "201" />
   <line class="fil0 str0" x1="52" y1="102" x2="83" y2= "201" />
   <line class="fil0 str0" x1="11" y1="102" x2="43" y2= "201" />
   <line class="fil0 str0" x1="661" y1="148" x2="560" y2= "148" />
   <line class="fil0 str0" x1="379" y1="148" x2="281" y2= "148" />
   <line class="fil0 str0" x1="100" y1="148" x2="3" y2= "148" />
   <rect class="fil0 str0" transform="matrix(-0.490326 -0.490326 -0.490326 0.490326 590.406 143.928)" width="253" height="253" rx="127" ry="127"/>
   <rect class="fil0 str0" transform="matrix(-0.490326 -0.490326 -0.490326 0.490326 871.234 143.928)" width="253" height="253" rx="127" ry="127"/>
  </g>
 </g>
</svg>
