<?xml version="1.0" encoding="UTF-8"?>
<!DOCTYPE svg PUBLIC "-//W3C//DTD SVG 1.1//EN" "http://www.w3.org/Graphics/SVG/1.1/DTD/svg11.dtd">
<!-- Creator: CorelDRAW X7 -->
<svg xmlns="http://www.w3.org/2000/svg" xml:space="preserve" width="3.7252mm" height="8.4666mm" version="1.1" style="shape-rendering:geometricPrecision; text-rendering:geometricPrecision; image-rendering:optimizeQuality; fill-rule:evenodd; clip-rule:evenodd"
viewBox="0 0 373 847"
 xmlns:xlink="http://www.w3.org/1999/xlink">
 <defs>
  <style type="text/css">
   <![CDATA[
    .str0 {stroke:#00CCFF;stroke-width:16.93}
    .fil0 {fill:none}
   ]]>
  </style>
 </defs>
 <g id="图层_x0020_1">
  <metadata id="CorelCorpID_0Corel-Layer"/>
  <g id="_1828115654880">
   <line class="fil0 str0" x1="13" y1="36" x2="171" y2= "36" />
   <line class="fil0 str0" x1="92" y1="8" x2="92" y2= "36" />
   <polyline class="fil0 str0" points="13,67 92,266 92,838 "/>
   <polyline class="fil0 str0" points="92,377 280,377 280,487 "/>
   <line class="fil0 str0" x1="186" y1="487" x2="370" y2= "487" />
   <line class="fil0 str0" x1="186" y1="535" x2="370" y2= "535" />
   <g>
    <circle class="fil0 str0" cx="278" cy="654" r="54"/>
    <line class="fil0 str0" x1="318" y1="690" x2="242" y2= "613" />
    <line class="fil0 str0" x1="242" y1="690" x2="318" y2= "613" />
   </g>
   <line class="fil0 str0" x1="278" y1="535" x2="278" y2= "599" />
   <line class="fil0 str0" x1="278" y1="712" x2="278" y2= "773" />
   <line class="fil0 str0" x1="324" y1="773" x2="232" y2= "773" />
   <line class="fil0 str0" x1="303" y1="801" x2="253" y2= "801" />
   <line class="fil0 str0" x1="289" y1="830" x2="268" y2= "830" />
  </g>
 </g>
</svg>
