<?xml version="1.0" encoding="UTF-8"?>
<!DOCTYPE svg PUBLIC "-//W3C//DTD SVG 1.1//EN" "http://www.w3.org/Graphics/SVG/1.1/DTD/svg11.dtd">
<!-- Creator: CorelDRAW X7 -->
<svg xmlns="http://www.w3.org/2000/svg" xml:space="preserve" width="6.9426mm" height="8.4666mm" version="1.1" style="shape-rendering:geometricPrecision; text-rendering:geometricPrecision; image-rendering:optimizeQuality; fill-rule:evenodd; clip-rule:evenodd"
viewBox="0 0 694 847"
 xmlns:xlink="http://www.w3.org/1999/xlink">
 <defs>
  <style type="text/css">
   <![CDATA[
    .str0 {stroke:#00CCFF;stroke-width:42.33}
    .fil0 {fill:none}
    .fil1 {fill:#00CCFF}
   ]]>
  </style>
 </defs>
 <g id="图层_x0020_1">
  <metadata id="CorelCorpID_0Corel-Layer"/>
  <g id="_1828116954144">
   <polyline class="fil0 str0" points="24,226 295,618 295,849 "/>
   <line class="fil0 str0" x1="207" y1="66" x2="382" y2= "241" />
   <line class="fil0 str0" x1="382" y1="66" x2="207" y2= "241" />
   <line class="fil0 str0" x1="295" y1="0" x2="295" y2= "159" />
  </g>
  <path class="fil1" d="M497 534l0 37 -141 0c1,-14 6,-27 14,-40 7,-13 22,-29 45,-50 18,-17 29,-29 33,-35 6,-8 8,-16 8,-24 0,-9 -2,-16 -7,-21 -5,-5 -11,-7 -20,-7 -8,0 -15,2 -20,7 -5,5 -8,14 -8,25l-40 -4c2,-22 9,-38 22,-47 13,-10 28,-15 47,-15 21,0 37,6 49,17 12,11 18,25 18,42 0,9 -2,18 -5,27 -4,8 -9,17 -16,27 -5,6 -14,15 -27,27 -13,11 -21,19 -24,23 -3,4 -6,7 -8,11l80 0zm26 37l0 -210 68 0c25,0 42,1 50,3 12,4 22,10 30,21 8,11 12,24 12,41 0,13 -2,24 -7,32 -4,9 -10,16 -17,21 -8,5 -15,8 -22,10 -10,2 -25,3 -44,3l-28 0 0 79 -42 0zm42 -174l0 60 23 0c17,0 28,-2 34,-4 5,-2 10,-5 13,-10 3,-5 5,-10 5,-16 0,-8 -2,-14 -7,-19 -4,-5 -10,-9 -17,-10 -5,-1 -15,-1 -30,-1l-21 0z"/>
 </g>
</svg>
