<?xml version="1.0" encoding="UTF-8"?>
<!DOCTYPE svg PUBLIC "-//W3C//DTD SVG 1.1//EN" "http://www.w3.org/Graphics/SVG/1.1/DTD/svg11.dtd">
<!-- Creator: CorelDRAW X7 -->
<svg xmlns="http://www.w3.org/2000/svg" xml:space="preserve" width="6.9426mm" height="8.4666mm" version="1.1" style="shape-rendering:geometricPrecision; text-rendering:geometricPrecision; image-rendering:optimizeQuality; fill-rule:evenodd; clip-rule:evenodd"
viewBox="0 0 694 847"
 xmlns:xlink="http://www.w3.org/1999/xlink">
 <defs>
  <style type="text/css">
   <![CDATA[
    .str0 {stroke:#00CCFF;stroke-width:42.33}
    .fil0 {fill:none}
    .fil1 {fill:#00CCFF}
   ]]>
  </style>
 </defs>
 <g id="图层_x0020_1">
  <metadata id="CorelCorpID_0Corel-Layer"/>
  <g id="_1828084623568">
   <polyline class="fil0 str0" points="24,226 295,618 295,849 "/>
   <line class="fil0 str0" x1="207" y1="66" x2="382" y2= "241" />
   <line class="fil0 str0" x1="382" y1="66" x2="207" y2= "241" />
   <line class="fil0 str0" x1="295" y1="0" x2="295" y2= "159" />
  </g>
  <path class="fil1" d="M357 517l39 -5c2,10 5,18 10,23 6,5 13,8 20,8 9,0 16,-3 21,-10 6,-6 9,-15 9,-26 0,-10 -3,-18 -8,-24 -6,-6 -12,-9 -20,-9 -6,0 -12,1 -19,3l5 -33c11,1 19,-2 25,-7 5,-5 8,-12 8,-20 0,-7 -2,-13 -6,-17 -4,-4 -10,-6 -17,-6 -7,0 -13,2 -18,7 -5,5 -8,12 -9,21l-37 -6c3,-13 7,-24 12,-31 5,-8 12,-14 22,-18 9,-5 20,-7 31,-7 20,0 36,6 48,19 10,10 15,22 15,35 0,19 -10,34 -30,45 12,3 21,8 29,18 7,9 10,20 10,32 0,19 -6,35 -20,48 -13,13 -30,19 -50,19 -20,0 -35,-5 -48,-16 -13,-11 -20,-26 -22,-43zm165 56l0 -212 68 0c26,0 43,1 51,3 12,3 22,10 30,21 8,11 12,24 12,41 0,13 -2,24 -7,33 -4,9 -10,16 -18,21 -7,5 -14,8 -22,10 -10,2 -25,3 -44,3l-28 0 0 80 -42 0zm42 -176l0 60 24 0c16,0 28,-1 33,-3 6,-2 10,-6 14,-11 3,-4 4,-10 4,-16 0,-8 -2,-14 -6,-19 -5,-5 -11,-8 -17,-10 -6,-1 -16,-1 -31,-1l-21 0z"/>
 </g>
</svg>
