<?xml version="1.0" encoding="UTF-8"?>
<!DOCTYPE svg PUBLIC "-//W3C//DTD SVG 1.1//EN" "http://www.w3.org/Graphics/SVG/1.1/DTD/svg11.dtd">
<!-- Creator: CorelDRAW X7 -->
<svg xmlns="http://www.w3.org/2000/svg" xml:space="preserve" width="7.4095mm" height="16.9333mm" version="1.1" style="shape-rendering:geometricPrecision; text-rendering:geometricPrecision; image-rendering:optimizeQuality; fill-rule:evenodd; clip-rule:evenodd"
viewBox="0 0 741 1693"
 xmlns:xlink="http://www.w3.org/1999/xlink">
 <defs>
  <style type="text/css">
   <![CDATA[
    .fil7 {fill:aqua}
    .fil5 {fill:#33CC66}
    .fil3 {fill:#348DD1}
    .fil4 {fill:#68B1E6}
    .fil0 {fill:#68B1E6}
    .fil1 {fill:#96D2FF}
    .fil2 {fill:#BFF4FF}
    .fil6 {fill:red}
   ]]>
  </style>
 </defs>
 <g id="图层_x0020_1">
  <metadata id="CorelCorpID_0Corel-Layer"/>
  <g id="_2595523617440">
   <rect class="fil0" width="741" height="1693"/>
   <rect class="fil1" x="46" y="55" width="648" height="1638"/>
   <polygon class="fil0" points="46,1167 695,1167 695,1158 46,1158 "/>
   <g>
    <rect class="fil2" x="187" y="445" width="25.7781" height="119.302"/>
    <rect class="fil2" x="238" y="445" width="25.7781" height="119.302"/>
    <rect class="fil2" x="288" y="445" width="25.7781" height="119.302"/>
    <rect class="fil2" x="338" y="445" width="25.7781" height="119.302"/>
    <rect class="fil2" x="388" y="445" width="25.7781" height="119.302"/>
    <rect class="fil2" x="439" y="445" width="25.7781" height="119.302"/>
    <rect class="fil2" x="489" y="445" width="25.7781" height="119.302"/>
    <rect class="fil2" x="539" y="445" width="25.7781" height="119.302"/>
   </g>
   <rect class="fil3" x="314" y="649" width="124.272" height="48.574"/>
   <polygon class="fil0" points="46,606 695,606 695,597 46,597 "/>
   <polygon class="fil0" points="46,413 695,413 695,404 46,404 "/>
   <rect class="fil4" x="247" y="775" width="257.508" height="74.6135"/>
   <rect class="fil4" x="531" y="775" width="84.8609" height="18.8579"/>
   <rect class="fil0" x="138" y="798" width="35.1164" height="28.3727"/>
   <rect class="fil0" x="247" y="913" width="257.508" height="74.6135"/>
   <rect class="fil4" x="531" y="913" width="84.8609" height="18.8579"/>
   <rect class="fil0" x="138" y="936" width="35.1164" height="28.3727"/>
   <rect class="fil0" x="247" y="1055" width="257.508" height="74.6135"/>
   <rect class="fil4" x="531" y="1055" width="84.8609" height="18.8579"/>
   <rect class="fil0" x="138" y="1078" width="35.1164" height="28.3727"/>
   <g>
    <rect class="fil0" x="187" y="533" width="25.7781" height="31.7473"/>
    <rect class="fil0" x="238" y="533" width="25.7781" height="31.7473"/>
    <rect class="fil0" x="288" y="533" width="25.7781" height="31.7473"/>
    <rect class="fil0" x="338" y="533" width="25.7781" height="31.7473"/>
    <rect class="fil0" x="388" y="533" width="25.7781" height="31.7473"/>
    <rect class="fil0" x="439" y="533" width="25.7781" height="31.7473"/>
    <rect class="fil0" x="489" y="533" width="25.7781" height="31.7473"/>
    <rect class="fil0" x="539" y="533" width="25.7781" height="31.7473"/>
   </g>
   <g>
    <rect class="fil2" x="187" y="1214" width="25.7781" height="119.302"/>
    <rect class="fil2" x="238" y="1214" width="25.7781" height="119.302"/>
    <rect class="fil2" x="288" y="1214" width="25.7781" height="119.302"/>
    <rect class="fil2" x="338" y="1214" width="25.7781" height="119.302"/>
    <rect class="fil2" x="388" y="1214" width="25.7781" height="119.302"/>
    <rect class="fil2" x="439" y="1214" width="25.7781" height="119.302"/>
    <rect class="fil2" x="489" y="1214" width="25.7781" height="119.302"/>
    <rect class="fil2" x="539" y="1214" width="25.7781" height="119.302"/>
   </g>
   <g>
    <rect class="fil0" x="187" y="1301" width="25.7781" height="31.7473"/>
    <rect class="fil0" x="238" y="1301" width="25.7781" height="31.7473"/>
    <rect class="fil0" x="288" y="1301" width="25.7781" height="31.7473"/>
    <rect class="fil0" x="338" y="1301" width="25.7781" height="31.7473"/>
    <rect class="fil0" x="388" y="1301" width="25.7781" height="31.7473"/>
    <rect class="fil0" x="439" y="1301" width="25.7781" height="31.7473"/>
    <rect class="fil0" x="489" y="1301" width="25.7781" height="31.7473"/>
    <rect class="fil0" x="539" y="1301" width="25.7781" height="31.7473"/>
   </g>
   <g>
    <path class="fil5" d="M195 319c0,9 4,17 12,21 7,5 17,5 24,0 8,-4 12,-12 12,-21 0,-8 -4,-16 -12,-21 -7,-4 -17,-4 -24,0 -8,5 -12,13 -12,21z"/>
    <path class="fil6" d="M495 319c0,9 4,17 12,21 7,5 17,5 24,0 8,-4 12,-12 12,-21 0,-8 -4,-16 -12,-21 -7,-4 -17,-4 -24,0 -8,5 -12,13 -12,21z"/>
    <rect class="fil3" x="192" y="98" width="112.233" height="48.574"/>
    <rect class="fil3" x="437" y="98" width="112.233" height="48.574"/>
    <rect class="fil3" x="192" y="204" width="112.233" height="48.574"/>
    <rect class="fil3" x="437" y="204" width="112.233" height="48.574"/>
    <path class="fil7" d="M347 319c0,9 5,17 13,21 7,5 16,5 24,0 7,-4 12,-12 12,-21 0,-8 -5,-16 -12,-21 -8,-4 -17,-4 -24,0 -8,5 -13,13 -13,21z"/>
    <rect class="fil2" x="192" y="127" width="112.233" height="19.5044"/>
    <rect class="fil2" x="437" y="127" width="112.233" height="19.5044"/>
    <rect class="fil2" x="192" y="233" width="112.233" height="19.5044"/>
    <rect class="fil2" x="437" y="233" width="112.233" height="19.5044"/>
   </g>
   <polygon class="fil0" points="46,1027 695,1027 695,1018 46,1018 "/>
   <polygon class="fil0" points="46,887 695,887 695,877 46,877 "/>
   <polygon class="fil0" points="46,746 695,746 695,737 46,737 "/>
  </g>
 </g>
</svg>
