<?xml version="1.0" encoding="UTF-8"?>
<!DOCTYPE svg PUBLIC "-//W3C//DTD SVG 1.1//EN" "http://www.w3.org/Graphics/SVG/1.1/DTD/svg11.dtd">
<!-- Creator: CorelDRAW X7 -->
<svg xmlns="http://www.w3.org/2000/svg" xml:space="preserve" width="7.4159mm" height="16.9333mm" version="1.1" style="shape-rendering:geometricPrecision; text-rendering:geometricPrecision; image-rendering:optimizeQuality; fill-rule:evenodd; clip-rule:evenodd"
viewBox="0 0 742 1693"
 xmlns:xlink="http://www.w3.org/1999/xlink">
 <defs>
  <style type="text/css">
   <![CDATA[
    .fil7 {fill:aqua}
    .fil5 {fill:#115E9C}
    .fil1 {fill:#348DD1}
    .fil0 {fill:#68B1E6}
    .fil2 {fill:#96D2FF}
    .fil3 {fill:red}
    .fil4 {fill:#FFF000}
    .fil6 {fill:#BFF4FF;fill-rule:nonzero}
   ]]>
  </style>
 </defs>
 <g id="图层_x0020_1">
  <metadata id="CorelCorpID_0Corel-Layer"/>
  <g id="_2595521071184">
   <rect class="fil0" width="742" height="1693"/>
   <polygon class="fil1" points="682,786 718,786 718,921 682,921 "/>
   <rect class="fil2" x="82" y="62" width="581" height="1570"/>
   <polygon class="fil0" points="82,841 663,841 663,773 82,773 "/>
   <path class="fil3" d="M131 207c0,9 4,17 12,21 7,5 18,5 25,0 7,-4 12,-12 12,-21 0,-8 -5,-16 -12,-20 -7,-5 -18,-5 -25,0 -8,4 -12,12 -12,20z"/>
   <path class="fil4" d="M356 303c0,8 5,16 13,20 7,5 16,5 25,0 7,-4 12,-12 12,-20 0,-9 -5,-17 -12,-21 -9,-4 -18,-4 -25,0 -8,4 -13,12 -13,21z"/>
   <path class="fil3" d="M582 207c0,9 5,17 12,21 8,5 17,5 24,0 9,-4 13,-12 13,-21 0,-8 -4,-16 -13,-20 -7,-5 -16,-5 -24,0 -7,4 -12,12 -12,20z"/>
   <path class="fil5" d="M131 303c0,8 4,16 12,20 7,5 18,5 25,0 7,-4 12,-12 12,-20 0,-9 -5,-17 -12,-21 -7,-4 -18,-4 -25,0 -8,4 -12,12 -12,21z"/>
   <rect class="fil1" x="124" y="94" width="112.259" height="48.5875"/>
   <rect class="fil1" x="256" y="94" width="112.259" height="48.5875"/>
   <polygon class="fil1" points="82,564 663,564 663,387 82,387 "/>
   <rect class="fil1" x="387" y="94" width="112.259" height="48.5875"/>
   <rect class="fil1" x="518" y="94" width="112.259" height="48.5875"/>
   <polygon class="fil5" points="364,644 391,644 391,711 364,711 "/>
   <polygon class="fil6" points="128,537 128,413 152,413 152,463 201,463 201,413 227,413 227,537 201,537 201,484 152,484 152,537 "/>
   <polygon id="_1" class="fil6" points="294,537 249,413 276,413 309,506 339,413 366,413 321,537 "/>
   <path id="_2" class="fil6" d="M388 413l45 0c11,0 19,2 24,3 7,2 14,6 18,12 6,6 9,12 12,20 3,8 5,18 5,29 0,10 -2,19 -5,27 -3,9 -7,16 -13,21 -5,5 -10,8 -18,10 -4,2 -12,2 -21,2l-47 0 0 -124 0 0zm24 22l0 82 19 0c7,0 12,-1 15,-1 4,-1 8,-3 10,-5 3,-3 6,-7 7,-13 2,-5 2,-13 2,-22 0,-10 0,-17 -2,-22 -1,-5 -5,-9 -7,-13 -3,-2 -7,-4 -12,-5 -4,-1 -10,-1 -20,-1l-12 0 0 0z"/>
   <path id="_3" class="fil6" d="M601 492l25 7c-3,14 -10,24 -19,31 -8,6 -19,10 -33,10 -16,0 -30,-6 -41,-17 -10,-11 -16,-27 -16,-46 0,-21 6,-37 17,-48 10,-12 25,-18 42,-18 15,0 28,5 36,14 6,5 11,13 14,23l-25 6c-2,-7 -5,-11 -10,-15 -4,-4 -10,-5 -17,-5 -8,0 -16,2 -22,9 -5,6 -9,17 -9,32 0,16 4,27 9,33 6,7 14,10 22,10 7,0 13,-2 17,-6 5,-4 8,-10 10,-20z"/>
   <path class="fil7" d="M582 302c0,9 5,17 12,21 8,5 17,5 24,0 9,-4 13,-12 13,-21 0,-8 -4,-16 -13,-20 -7,-5 -16,-5 -24,0 -7,4 -12,12 -12,20z"/>
   <g>
    <rect class="fil0" x="161" y="892" width="159" height="276" rx="14" ry="14"/>
    <polygon class="fil1" points="219,909 261,909 261,924 219,924 "/>
    <rect class="fil1" x="177" y="1052" width="126" height="101" rx="12" ry="12"/>
   </g>
   <g>
    <rect class="fil0" x="436" y="892" width="159" height="276" rx="14" ry="14"/>
    <polygon class="fil1" points="494,909 536,909 536,924 494,924 "/>
    <rect class="fil1" x="452" y="1052" width="126" height="101" rx="12" ry="12"/>
   </g>
   <g>
    <rect class="fil0" x="161" y="1321" width="159" height="276" rx="14" ry="14"/>
    <polygon class="fil1" points="219,1338 261,1338 261,1353 219,1353 "/>
    <rect class="fil1" x="177" y="1481" width="126" height="101" rx="12" ry="12"/>
   </g>
   <g>
    <rect class="fil0" x="436" y="1321" width="159" height="276" rx="14" ry="14"/>
    <polygon class="fil1" points="494,1338 536,1338 536,1353 494,1353 "/>
    <rect class="fil1" x="452" y="1481" width="126" height="101" rx="12" ry="12"/>
   </g>
   <polygon class="fil0" points="82,1278 663,1278 663,1210 82,1210 "/>
  </g>
 </g>
</svg>
