<?xml version="1.0" encoding="UTF-8"?>
<!DOCTYPE svg PUBLIC "-//W3C//DTD SVG 1.1//EN" "http://www.w3.org/Graphics/SVG/1.1/DTD/svg11.dtd">
<!-- Creator: CorelDRAW X7 -->
<svg xmlns="http://www.w3.org/2000/svg" xml:space="preserve" width="9.6518mm" height="16.9332mm" version="1.1" style="shape-rendering:geometricPrecision; text-rendering:geometricPrecision; image-rendering:optimizeQuality; fill-rule:evenodd; clip-rule:evenodd"
viewBox="0 0 965 1693"
 xmlns:xlink="http://www.w3.org/1999/xlink">
 <defs>
  <style type="text/css">
   <![CDATA[
    .fil4 {fill:aqua}
    .fil1 {fill:#0B4675}
    .fil2 {fill:#2E80BF}
    .fil0 {fill:#68B1E6}
    .fil5 {fill:#96D2FF}
    .fil6 {fill:#D3EAFC}
    .fil3 {fill:#FFF000}
   ]]>
  </style>
 </defs>
 <g id="图层_x0020_1">
  <metadata id="CorelCorpID_0Corel-Layer"/>
  <g id="_2595484007968">
   <path class="fil0" d="M0 0l965 0 0 1634 -74 0 0 11c0,26 -18,48 -41,48l0 0c-23,0 -42,-21 -42,-48l0 -11 -655 0 0 11c0,26 -20,48 -42,48l0 0c-23,0 -42,-21 -42,-48l0 -11 -69 0 0 -1634 0 0 0 0z"/>
   <polygon class="fil1" points="329,0 352,0 352,1634 329,1634 "/>
   <g>
    <polygon class="fil1" points="877,1245 901,1245 901,1580 877,1580 "/>
    <polygon class="fil1" points="831,1245 854,1245 854,1580 831,1580 "/>
    <polygon class="fil1" points="784,1245 808,1245 808,1580 784,1580 "/>
    <polygon class="fil1" points="738,1245 761,1245 761,1580 738,1580 "/>
    <polygon class="fil1" points="691,1245 715,1245 715,1580 691,1580 "/>
    <polygon class="fil1" points="645,1245 668,1245 668,1580 645,1580 "/>
    <polygon class="fil1" points="598,1245 622,1245 622,1580 598,1580 "/>
    <polygon class="fil1" points="552,1245 575,1245 575,1580 552,1580 "/>
    <polygon class="fil1" points="505,1245 529,1245 529,1580 505,1580 "/>
    <polygon class="fil1" points="459,1245 482,1245 482,1580 459,1580 "/>
    <polygon class="fil1" points="412,1245 436,1245 436,1580 412,1580 "/>
   </g>
   <g>
    <polygon class="fil1" points="877,820 901,820 901,1196 877,1196 "/>
    <polygon class="fil1" points="831,820 854,820 854,1196 831,1196 "/>
    <polygon class="fil1" points="784,820 808,820 808,1196 784,1196 "/>
    <polygon class="fil1" points="738,820 761,820 761,1196 738,1196 "/>
    <polygon class="fil1" points="691,820 715,820 715,1196 691,1196 "/>
    <polygon class="fil1" points="645,820 668,820 668,1196 645,1196 "/>
    <polygon class="fil1" points="598,820 622,820 622,1196 598,1196 "/>
    <polygon class="fil1" points="552,820 575,820 575,1196 552,1196 "/>
    <polygon class="fil1" points="505,820 529,820 529,1196 505,1196 "/>
    <polygon class="fil1" points="459,820 482,820 482,1196 459,1196 "/>
    <polygon class="fil1" points="412,820 436,820 436,1196 412,1196 "/>
   </g>
   <g>
    <polygon class="fil1" points="877,433 901,433 901,771 877,771 "/>
    <polygon class="fil1" points="831,433 854,433 854,771 831,771 "/>
    <polygon class="fil1" points="784,433 808,433 808,771 784,771 "/>
    <polygon class="fil1" points="738,433 761,433 761,771 738,771 "/>
    <polygon class="fil1" points="691,433 715,433 715,771 691,771 "/>
    <polygon class="fil1" points="645,433 668,433 668,771 645,771 "/>
    <polygon class="fil1" points="598,433 622,433 622,771 598,771 "/>
    <polygon class="fil1" points="552,433 575,433 575,771 552,771 "/>
    <polygon class="fil1" points="505,433 529,433 529,771 505,771 "/>
    <polygon class="fil1" points="459,433 482,433 482,771 459,771 "/>
    <polygon class="fil1" points="412,433 436,433 436,771 412,771 "/>
   </g>
   <g>
    <path class="fil1" d="M425 331l468 0 0 -221 -468 0 0 221zm489 20l-508 0 0 -262 508 0 0 262zm-460 -79l52 0 0 20 -52 0 0 -20zm0 -41l52 0 0 20 -52 0 0 -20zm0 -82l52 0 0 41 -52 0 0 -41zm359 123l53 0 0 20 -53 0 0 -20zm0 -41l53 0 0 20 -53 0 0 -20zm0 -82l53 0 0 41 -53 0 0 -41zm-41 154l-224 0 0 -164 224 0 0 164zm-205 -21l185 0 0 -123 -185 0 0 123z"/>
    <rect class="fil2" x="567" y="159" width="185" height="123"/>
   </g>
   <rect class="fil3" x="589" y="178" width="141.948" height="31.0866"/>
   <rect class="fil4" x="589" y="234" width="141.948" height="31.0866"/>
   <path class="fil5" d="M0 0l329 0 0 1634c-69,0 -260,0 -329,0l0 -1634z"/>
   <g>
    <polygon class="fil1" points="10,1462 320,1462 320,1616 10,1616 "/>
    <path class="fil6" d="M167 1512l0 0 8 0c11,0 16,5 16,14 0,9 -5,14 -16,14l-8 0 0 -28 0 0 0 0zm51 50l0 0 0 19c6,3 14,4 25,4 10,0 18,-2 24,-6 6,-4 9,-11 9,-20 0,-5 -2,-10 -5,-14 -3,-4 -9,-8 -17,-11 -7,-3 -12,-6 -13,-8 -3,-1 -4,-3 -4,-6 0,-2 1,-5 5,-6 2,-2 6,-3 10,-3 8,0 14,2 20,6l0 -17c-6,-2 -12,-3 -21,-3 -9,0 -18,2 -24,7 -6,4 -9,10 -9,18 0,11 7,19 20,24 9,4 14,7 16,9 2,2 3,4 3,6 0,3 -1,5 -4,7 -2,1 -6,2 -11,2 -9,0 -17,-3 -24,-8l0 0 0 0zm-51 -9l10 0c9,1 17,-2 23,-7 6,-5 10,-12 10,-21 0,-18 -11,-26 -32,-26l-28 0 0 85 17 0 0 -31 0 0 0 0zm-37 -6l0 -48 -17 0 0 49c0,14 -6,21 -17,21 -11,0 -16,-7 -16,-21l0 -49 -18 0 0 49c0,25 11,37 34,37 23,0 34,-12 34,-38l0 0 0 0z"/>
   </g>
  </g>
 </g>
</svg>
