<?xml version="1.0" encoding="utf-8"?>
<!-- Generator: Adobe Illustrator 16.0.0, SVG Export Plug-In . SVG Version: 6.00 Build 0)  -->
<!DOCTYPE svg PUBLIC "-//W3C//DTD SVG 1.1//EN" "http://www.w3.org/Graphics/SVG/1.1/DTD/svg11.dtd">
<svg version="1.1" id="图层_1" xmlns="http://www.w3.org/2000/svg" xmlns:xlink="http://www.w3.org/1999/xlink" x="0px" y="0px"
	 width="36px" height="36px" viewBox="0 0 36 36" enable-background="new 0 0 36 36" xml:space="preserve">
<path fill="#1362AA" d="M34,28c0,1.657-1.343,3-3,3H5c-1.657,0-3-1.343-3-3V8c0-1.656,1.343-3,3-3h26c1.657,0,3,1.344,3,3V28z"/>
<ellipse fill="#FCFCFC" cx="18.465" cy="11.365" rx="11.472" ry="4.991"/>
<polygon fill="#0262A9" points="25.15,7.959 21.411,7.659 22.076,8.343 19.783,9.297 21.371,10.802 23.321,9.992 24.077,10.619 "/>
<polygon fill="#0262A9" points="25.15,14.502 21.411,14.802 22.076,14.118 19.783,13.164 21.371,11.659 23.321,12.469 
	24.077,11.842 "/>
<polygon fill="#0262A9" points="11.783,7.959 15.522,7.659 14.857,8.343 17.15,9.297 15.562,10.802 13.612,9.992 12.856,10.619 "/>
<polygon fill="#0262A9" points="11.783,14.502 15.522,14.802 14.857,14.118 17.15,13.164 15.562,11.659 13.612,12.469 
	12.856,11.842 "/>
<g>
	<path fill="#FCFCFC" d="M30,12.266c0,2.756-5.197,5.091-11.534,5.091c-6.291,0-11.393-2.204-11.466-4.933V18
		c0,0.124,0,0.124,0,0.188C7,20.846,12.294,23,18.594,23S30,20.846,30,18.188c0-0.063-0.017-0.125-0.022-0.188H30
		C30,18,30,12.143,30,12.266z"/>
</g>
<g>
	<path fill="#FCFCFC" d="M30,19.266c0,2.756-5.197,5.091-11.534,5.091c-6.291,0-11.393-2.204-11.466-4.933V25
		c0,0.124,0,0.124,0,0.188C7,27.846,12.294,30,18.594,30S30,27.846,30,25.188c0-0.063-0.017-0.125-0.022-0.188H30
		C30,25,30,19.143,30,19.266z"/>
</g>
</svg>
