<?xml version="1.0" encoding="utf-8"?>
<!-- Generator: Adobe Illustrator 16.0.0, SVG Export Plug-In . SVG Version: 6.00 Build 0)  -->
<!DOCTYPE svg PUBLIC "-//W3C//DTD SVG 1.1//EN" "http://www.w3.org/Graphics/SVG/1.1/DTD/svg11.dtd">
<svg version="1.1" id="图层_1" xmlns="http://www.w3.org/2000/svg" xmlns:xlink="http://www.w3.org/1999/xlink" x="0px" y="0px"
	 width="36px" height="36px" viewBox="0 0 36 36" enable-background="new 0 0 36 36" xml:space="preserve">
<path fill="#1362AA" d="M34,28c0,1.657-1.343,3-3,3H5c-1.657,0-3-1.343-3-3V8c0-1.657,1.343-3,3-3h26c1.657,0,3,1.343,3,3V28z"/>
<g>
	<polygon fill="#FFFFFF" points="25.572,16.241 24.229,14.759 27.641,11.667 24.229,8.575 25.572,7.093 30.619,11.667 	"/>
	<rect x="7" y="11" fill="#FFFFFF" width="21" height="2"/>
</g>
<g>
	<polygon fill="#FFFFFF" points="25.572,28.241 24.229,26.759 27.641,23.667 24.229,20.575 25.572,19.093 30.619,23.667 	"/>
	<rect x="7" y="23" fill="#FFFFFF" width="21" height="2"/>
</g>
<g>
	<polygon fill="#FFFFFF" points="10.725,22.241 5.678,17.667 10.725,13.093 12.068,14.575 8.656,17.667 12.068,20.759 	"/>
	<rect x="8" y="17" fill="#FFFFFF" width="21" height="2"/>
</g>
</svg>
