<?xml version="1.0" encoding="utf-8"?>
<!-- Generator: Adobe Illustrator 16.0.0, SVG Export Plug-In . SVG Version: 6.00 Build 0)  -->
<!DOCTYPE svg PUBLIC "-//W3C//DTD SVG 1.1//EN" "http://www.w3.org/Graphics/SVG/1.1/DTD/svg11.dtd">
<svg version="1.1" id="图层_1" xmlns="http://www.w3.org/2000/svg" xmlns:xlink="http://www.w3.org/1999/xlink" x="0px" y="0px"
	 width="36px" height="36px" viewBox="0 0 36 36" enable-background="new 0 0 36 36" xml:space="preserve">
	<path fill="#FF0000" d="M34,28c0,1.657-1.343,3-3,3H5c-1.657,0-3-1.343-3-3V8c0-1.656,1.343-3,3-3h26c1.657,0,3,1.344,3,3V28z">
		<animate attributeName="opacity" from="1" to="0" begin="0s" dur="2s" repeatCount="indefinite" />
	</path>
<g>
	<polygon fill="#FFFFFF" points="15,16 8,16 8,14 13,14 13,9 15,9 	"/>
	
		<rect x="6.742" y="10.778" transform="matrix(0.7072 0.707 -0.707 0.7072 11.6449 -4.1928)" fill="#FFFFFF" width="8.284" height="2.367"/>
</g>
<g>
	<polygon fill="#FFFFFF" points="28,16 21,16 21,9 23,9 23,14 28,14 	"/>
	
		<rect x="23.887" y="7.82" transform="matrix(0.7071 0.7071 -0.7071 0.7071 15.8014 -14.2242)" fill="#FFFFFF" width="2.367" height="8.284"/>
</g>
<g>
	<polygon fill="#FFFFFF" points="15,27 13,27 13,22 8,22 8,20 15,20 	"/>
	
		<rect x="9.701" y="19.896" transform="matrix(0.7071 0.7071 -0.7071 0.7071 20.1854 -0.6558)" fill="#FFFFFF" width="2.367" height="8.284"/>
</g>
<g>
	<polygon fill="#FFFFFF" points="23,27 21,27 21,20 28,20 28,22 23,22 	"/>
	
		<rect x="20.929" y="22.855" transform="matrix(0.7072 0.707 -0.707 0.7072 24.3377 -10.6871)" fill="#FFFFFF" width="8.284" height="2.367"/>
</g>
<circle fill="#FFFFFF" cx="17.939" cy="18.438" r="3.061"/>
<path fill="#FF0000" d="M17.939,23.499c-2.79,0-5.061-2.271-5.061-5.062c0-2.79,2.271-5.061,5.061-5.061S23,15.647,23,18.438
	C23,21.229,20.729,23.499,17.939,23.499z M17.939,15.377c-1.688,0-3.061,1.373-3.061,3.061c0,1.688,1.373,3.062,3.061,3.062
	S21,20.126,21,18.438C21,16.75,19.627,15.377,17.939,15.377z"/>
</svg>
