<?xml version="1.0" encoding="utf-8"?>
<!-- Generator: Adobe Illustrator 16.0.0, SVG Export Plug-In . SVG Version: 6.00 Build 0)  -->
<!DOCTYPE svg PUBLIC "-//W3C//DTD SVG 1.1//EN" "http://www.w3.org/Graphics/SVG/1.1/DTD/svg11.dtd">
<svg version="1.1" id="图层_1" xmlns="http://www.w3.org/2000/svg" xmlns:xlink="http://www.w3.org/1999/xlink" x="0px" y="0px"
	 width="36px" height="36px" viewBox="0 0 36 36" enable-background="new 0 0 36 36" xml:space="preserve">
<path fill="#1362AA" d="M34,28c0,1.657-1.343,3-3,3H5c-1.657,0-3-1.343-3-3V8c0-1.657,1.343-3,3-3h26c1.657,0,3,1.343,3,3V28z"/>
<path fill="#FFFFFF" d="M13.014,27.681c-4.213,0-4.989,0-5.242-0.109l-0.08-0.022C4.641,26.728,4,24.078,4,22
	c0-4.34,4.156-6.078,5.402-6.501c0.244-2.453,1.841-7.749,6.973-7.749c3.947,0,5.63,2.777,6.219,4.142
	c0.503-0.372,1.297-0.803,2.276-0.803c0.594,0,1.182,0.159,1.748,0.474c2.025,1.126,2.104,3.342,2.043,4.25
	c0.987,0.47,3.589,2.031,3.589,5.438c0,4.155-4.726,6.247-4.927,6.334l-0.195,0.041C27.128,27.625,18.682,27.681,13.014,27.681z
	 M8.145,26.641c0.241,0.017,1.23,0.04,4.869,0.04c5.29,0,13-0.049,14-0.055c0.613-0.293,4.236-2.16,4.236-5.376
	c0-3.46-3.155-4.605-3.289-4.652l-0.397-0.14l0.068-0.417c0.018-0.104,0.405-2.546-1.5-3.604c-0.415-0.231-0.84-0.349-1.262-0.349
	c-1.238,0-2.11,0.98-2.119,0.99l-0.625,0.716l-0.235-0.923c-0.043-0.168-1.103-4.122-5.516-4.122c-4.614,0-5.896,5.162-6.001,7.151
	l-0.019,0.366L10,16.359C9.795,16.412,5,17.702,5,22c0,3.788,2.222,4.387,2.952,4.583C8.025,26.603,8.088,26.62,8.145,26.641z"/>
<g>
	<polygon fill="#FFFFFF" points="20.838,23.419 20.166,22.679 22.386,20.667 20.166,18.655 20.838,17.915 23.876,20.667 	"/>
	<rect x="16" y="20" fill="#FFFFFF" width="7" height="1"/>
</g>
<g>
	<polygon fill="#FFFFFF" points="21.577,16.066 19.565,13.847 17.554,16.066 16.813,15.395 19.565,12.356 22.317,15.395 	"/>
	<rect x="19" y="13" fill="#FFFFFF" width="1" height="7"/>
</g>
<g>
	<polygon fill="#FFFFFF" points="14.293,20.134 11.255,17.382 14.293,14.63 14.965,15.37 12.745,17.382 14.965,19.394 	"/>
	<rect x="12" y="17" fill="#FFFFFF" width="7" height="1"/>
</g>
<g>
	<polygon fill="#FFFFFF" points="16.565,25.692 13.813,22.654 14.554,21.982 16.565,24.202 18.577,21.982 19.317,22.654 	"/>
	<rect x="16" y="18" fill="#FFFFFF" width="1" height="7"/>
</g>
</svg>
