<?xml version="1.0" encoding="utf-8"?>
<!-- Generator: Adobe Illustrator 16.0.0, SVG Export Plug-In . SVG Version: 6.00 Build 0)  -->
<!DOCTYPE svg PUBLIC "-//W3C//DTD SVG 1.1//EN" "http://www.w3.org/Graphics/SVG/1.1/DTD/svg11.dtd">
<svg version="1.1" id="图层_1" xmlns="http://www.w3.org/2000/svg" xmlns:xlink="http://www.w3.org/1999/xlink" x="0px" y="0px"
	 width="36px" height="36px" viewBox="0 0 36 36" enable-background="new 0 0 36 36" xml:space="preserve">
<path fill="#FF0000" d="M34,29c0,1.657-1.343,3-3,3H5c-1.657,0-3-1.343-3-3V9c0-1.657,1.343-3,3-3h26c1.657,0,3,1.343,3,3V29z">
	<animate attributeName="opacity" from="1" to="0" begin="0s" dur="2s" repeatCount="indefinite" />
</path>
<g>
	<polygon fill="#FFFFFF" points="23.748,25.994 22.74,24.883 26.607,21.38 22.74,17.876 23.748,16.765 28.842,21.38 	"/>
	<rect x="15" y="20" fill="#FFFFFF" width="12" height="2"/>
</g>
<g>
	<polygon fill="#FFFFFF" points="24.152,13.471 20.648,9.604 17.145,13.471 16.033,12.463 20.648,7.37 25.264,12.463 	"/>
	<rect x="20" y="9" fill="#FFFFFF" width="2" height="11"/>
</g>
<g>
	<polygon fill="#FFFFFF" points="11.731,20.396 6.638,15.781 11.731,11.166 12.739,12.277 8.872,15.781 12.739,19.285 	"/>
	<rect x="8" y="15" fill="#FFFFFF" width="12" height="2"/>
</g>
<g>
	<polygon fill="#FFFFFF" points="15.536,29.792 10.921,24.698 12.032,23.69 15.536,27.558 19.039,23.69 20.15,24.698 	"/>
	<rect x="15" y="16" fill="#FFFFFF" width="2" height="12"/>
</g>
</svg>
