<?xml version="1.0" encoding="utf-8"?>
<!-- Generator: Adobe Illustrator 16.0.0, SVG Export Plug-In . SVG Version: 6.00 Build 0)  -->
<!DOCTYPE svg PUBLIC "-//W3C//DTD SVG 1.1//EN" "http://www.w3.org/Graphics/SVG/1.1/DTD/svg11.dtd">
<svg version="1.1" id="图层_1" xmlns="http://www.w3.org/2000/svg" xmlns:xlink="http://www.w3.org/1999/xlink" x="0px" y="0px"
	 width="36px" height="36px" viewBox="0 0 36 36" enable-background="new 0 0 36 36" xml:space="preserve">
<path fill="#1362AA" d="M34,28c0,1.657-1.343,3-3,3H5c-1.657,0-3-1.343-3-3V8c0-1.657,1.343-3,3-3h26c1.657,0,3,1.343,3,3V28z"/>
<g>
	<polygon fill="#FFFFFF" points="23.748,24.994 22.74,23.883 26.607,20.38 22.74,16.876 23.748,15.765 28.842,20.38 	"/>
	<rect x="15" y="19" fill="#FFFFFF" width="12" height="2"/>
</g>
<g>
	<polygon fill="#FFFFFF" points="24.152,12.471 20.648,8.604 17.145,12.471 16.033,11.463 20.648,6.37 25.264,11.463 	"/>
	<rect x="20" y="8" fill="#FFFFFF" width="2" height="11"/>
</g>
<g>
	<polygon fill="#FFFFFF" points="11.731,19.396 6.638,14.781 11.731,10.166 12.739,11.277 8.872,14.781 12.739,18.285 	"/>
	<rect x="8" y="14" fill="#FFFFFF" width="12" height="2"/>
</g>
<g>
	<polygon fill="#FFFFFF" points="15.536,28.792 10.921,23.698 12.032,22.69 15.536,26.558 19.039,22.69 20.15,23.698 	"/>
	<rect x="15" y="15" fill="#FFFFFF" width="2" height="12"/>
</g>
</svg>
