<?xml version="1.0" encoding="utf-8"?>
<!-- Generator: Adobe Illustrator 16.0.0, SVG Export Plug-In . SVG Version: 6.00 Build 0)  -->
<!DOCTYPE svg PUBLIC "-//W3C//DTD SVG 1.1//EN" "http://www.w3.org/Graphics/SVG/1.1/DTD/svg11.dtd">
<svg version="1.1" id="图层_1" xmlns="http://www.w3.org/2000/svg" xmlns:xlink="http://www.w3.org/1999/xlink" x="0px" y="0px"
	 width="36px" height="36px" viewBox="0 0 36 36" enable-background="new 0 0 36 36" xml:space="preserve">
<path fill="#FF0000" d="M34,28c0,1.657-1.343,3-3,3H5c-1.657,0-3-1.343-3-3V8c0-1.656,1.343-3,3-3h26c1.657,0,3,1.344,3,3V28z">
	<animate attributeName="opacity" from="1" to="0" begin="0s" dur="2s" repeatCount="indefinite" />
</path>
<g>
	<polygon fill="#FFFFFF" points="27.678,29.239 26.789,27.991 30.154,25.594 26.789,23.196 27.678,21.948 32.795,25.594 	"/>
	<rect x="20" y="25" fill="#FFFFFF" width="11" height="1"/>
</g>
<g>
	<polygon fill="#FFFFFF" points="8.797,14.239 3.68,10.594 8.797,6.948 9.686,8.196 6.32,10.594 9.686,12.991 	"/>
	<rect x="5" y="10" fill="#FFFFFF" width="11" height="1"/>
</g>
<g>
	<path fill="#FFFFFF" d="M13.597,20.584l2.488-0.457c0.203,1.523,1.049,2.285,2.539,2.285c1.117-0.033,1.709-0.475,1.777-1.32
		c0-0.643-0.39-1.117-1.168-1.422c-0.812-0.271-1.558-0.49-2.234-0.66c-2.065-0.439-3.064-1.506-2.996-3.199
		c0.203-1.896,1.574-2.912,4.113-3.047c2.641-0.033,4.197,1.016,4.672,3.148L20.3,16.42c-0.17-1.117-0.863-1.676-2.082-1.676
		c-0.982,0.033-1.507,0.389-1.574,1.066c-0.068,0.643,0.592,1.117,1.98,1.422c0.981,0.203,1.861,0.508,2.641,0.914
		c1.185,0.609,1.794,1.557,1.828,2.844c-0.102,2.166-1.574,3.283-4.418,3.352C15.797,24.375,14.104,23.123,13.597,20.584z"/>
</g>
</svg>
