<?xml version="1.0" encoding="utf-8"?>
<!-- Generator: Adobe Illustrator 16.0.0, SVG Export Plug-In . SVG Version: 6.00 Build 0)  -->
<!DOCTYPE svg PUBLIC "-//W3C//DTD SVG 1.1//EN" "http://www.w3.org/Graphics/SVG/1.1/DTD/svg11.dtd">
<svg version="1.1" id="图层_1" xmlns="http://www.w3.org/2000/svg" xmlns:xlink="http://www.w3.org/1999/xlink" x="0px" y="0px"
	 width="36px" height="36px" viewBox="0 0 36 36" enable-background="new 0 0 36 36" xml:space="preserve">
<path fill="#FF0000" d="M34,28c0,1.657-1.343,3-3,3H5c-1.657,0-3-1.343-3-3V8c0-1.657,1.343-3,3-3h26c1.657,0,3,1.343,3,3V28z">
	<animate attributeName="opacity" from="1" to="0" begin="0s" dur="2s" repeatCount="indefinite" />
</path>
<g>
	<polygon fill="#FFFFFF" points="20.662,18.898 19.939,18.102 21.776,16.436 19.939,14.772 20.662,13.974 23.38,16.436 	"/>
	<rect x="10" y="16" fill="#FFFFFF" width="12" height="1"/>
</g>
<g>
	<polygon fill="#FFFFFF" points="20.662,24.898 19.939,24.102 21.776,22.436 19.939,20.772 20.662,19.974 23.38,22.436 	"/>
	<rect x="10" y="22" fill="#FFFFFF" width="12" height="1"/>
</g>
<g>
	<polygon fill="#FFFFFF" points="12.041,21.898 9.323,19.436 12.041,16.974 12.764,17.772 10.927,19.436 12.764,21.102 	"/>
	<rect x="10" y="19" fill="#FFFFFF" width="12" height="1"/>
</g>
<path fill="#FFFFFF" d="M24.5,27h-16C7.673,27,7,26.327,7,25.5v-13C7,11.673,7.673,11,8.5,11h16c0.827,0,1.5,0.673,1.5,1.5v13
	C26,26.327,25.327,27,24.5,27z M8.5,12C8.225,12,8,12.225,8,12.5v13C8,25.775,8.225,26,8.5,26h16c0.275,0,0.5-0.225,0.5-0.5v-13
	c0-0.275-0.225-0.5-0.5-0.5H8.5z"/>
<path fill="#FFFFFF" d="M28.625,24H26v-1h2.625C28.973,23,29,22.617,29,22.5v-13C29,9.383,28.973,9,28.625,9h-16
	C12.321,9,12,9.257,12,9.5V12h-1V9.5C11,8.701,11.76,8,12.625,8h16C29.422,8,30,8.631,30,9.5v13C30,23.369,29.422,24,28.625,24z"/>
</svg>
