<?xml version="1.0" encoding="utf-8"?>
<!-- Generator: Adobe Illustrator 16.0.0, SVG Export Plug-In . SVG Version: 6.00 Build 0)  -->
<!DOCTYPE svg PUBLIC "-//W3C//DTD SVG 1.1//EN" "http://www.w3.org/Graphics/SVG/1.1/DTD/svg11.dtd">
<svg version="1.1" id="图层_1" xmlns="http://www.w3.org/2000/svg" xmlns:xlink="http://www.w3.org/1999/xlink" x="0px" y="0px"
	 width="36px" height="36px" viewBox="0 0 36 36" enable-background="new 0 0 36 36" xml:space="preserve">
<path fill="#1362AA" d="M34,28c0,1.657-1.343,3-3,3H5c-1.657,0-3-1.343-3-3V8c0-1.656,1.343-3,3-3h26c1.657,0,3,1.344,3,3V28z"/>
<path fill="#FFFFFF" d="M24.5,28h-16C7.673,28,7,27.327,7,26.5v-13C7,12.673,7.673,12,8.5,12h16c0.827,0,1.5,0.673,1.5,1.5v13
	C26,27.327,25.327,28,24.5,28z M8.5,13C8.225,13,8,13.225,8,13.5v13C8,26.775,8.225,27,8.5,27h16c0.275,0,0.5-0.225,0.5-0.5v-13
	c0-0.275-0.225-0.5-0.5-0.5H8.5z"/>
<path fill="#FFFFFF" d="M29.125,25H26v-1h3c0-0.004,0-0.007,0-0.011c0-0.108,0-0.23,0-0.364v-13c0-0.123,0.008-0.248,0.016-0.367
	C29.021,10.182,29.027,10,29.027,10H13.125C12.747,10,12,10.427,12,10.634V13h-1v-2.375C11,9.687,12.397,9,13.125,9h16
	c0.345,0,0.55,0.142,0.661,0.261c0.277,0.296,0.25,0.703,0.228,1.062C30.007,10.422,30,10.523,30,10.625v13
	c0,0.105,0.008,0.202,0.015,0.288c0.021,0.272,0.044,0.581-0.188,0.832C29.591,25,29.24,25,29.125,25z"/>
<path fill="#FFFFFF" d="M13.421,25.939c-2.422,0-2.88-0.002-3.027-0.062c-1.813-0.495-2.183-2.023-2.183-3.222
	c0-2.508,2.402-3.512,3.122-3.757c0.142-1.417,1.064-4.479,4.03-4.479c2.282,0,3.255,1.606,3.594,2.395
	c0.291-0.215,0.751-0.464,1.316-0.464c0.344,0,0.684,0.092,1.011,0.273c1.17,0.65,1.216,1.931,1.181,2.456
	c0.57,0.271,2.074,1.174,2.074,3.143c0,2.402-2.731,3.61-2.848,3.661l-0.112,0.023C21.579,25.907,16.697,25.939,13.421,25.939z
	 M21.513,25.149c0.354-0.17,2.448-1.157,2.448-3.017c0-2.01-1.882-2.638-1.9-2.644l-0.231-0.058l0.04-0.231
	c0.011-0.06,0.234-1.466-0.866-2.076c-0.24-0.134-0.485-0.198-0.729-0.198c-0.708,0-1.221,0.569-1.226,0.575l-0.361,0.406
	l-0.136-0.526c-0.024-0.097-0.637-2.383-3.188-2.383c-2.667,0-3.408,2.983-3.468,4.134l-0.012,0.211l-0.205,0.054
	c-0.118,0.03-2.89,0.775-2.89,3.259c0,2.19,1.283,2.445,1.705,2.559C10.537,25.226,20.876,25.376,21.513,25.149z"/>
<g>
	<g>
		<polygon fill="#FFFFFF" points="15.198,20.737 12.679,19.482 15.198,18.228 14.356,19.535 		"/>
		<rect x="14" y="19" fill="#FFFFFF" width="7" height="1"/>
	</g>
</g>
<g>
	<g>
		<polygon fill="#FFFFFF" points="15.198,24.737 12.679,23.482 15.198,22.228 14.356,23.535 		"/>
		<rect x="14" y="23" fill="#FFFFFF" width="7" height="1"/>
	</g>
</g>
<g>
	<g>
		<polygon fill="#FFFFFF" points="18.481,22.737 21.001,21.482 18.481,20.228 19.323,21.535 		"/>
		<rect x="13" y="21" fill="#FFFFFF" width="7" height="1"/>
	</g>
</g>
</svg>
