<?xml version="1.0" encoding="utf-8"?>
<!-- Generator: Adobe Illustrator 16.0.0, SVG Export Plug-In . SVG Version: 6.00 Build 0)  -->
<!DOCTYPE svg PUBLIC "-//W3C//DTD SVG 1.1//EN" "http://www.w3.org/Graphics/SVG/1.1/DTD/svg11.dtd">
<svg version="1.1" id="图层_1" xmlns="http://www.w3.org/2000/svg" xmlns:xlink="http://www.w3.org/1999/xlink" x="0px" y="0px"
	 width="34px" height="34px" viewBox="0 0 34 34" enable-background="new 0 0 34 34" xml:space="preserve">
<path fill="#1362AA" d="M33,27c0,1.657-1.343,3-3,3H4c-1.657,0-3-1.343-3-3V7c0-1.657,1.343-3,3-3h26c1.657,0,3,1.343,3,3V27z"/>
<rect x="7" y="14" fill="#FFFFFF" width="20" height="6"/>
<polygon fill="#FFFFFF" points="27.125,13 7.125,13 10.125,8 24.125,8 "/>
<rect x="7" y="21" fill="#FFFFFF" width="20" height="5"/>
<g>
	<rect x="16" y="23" fill="#1362AA" width="2" height="2"/>
	<path fill="#1362AA" d="M17.032,14.689l-0.036-0.003c-2.028,0-2.996,1.211-2.996,3.409V19h1.747l-0.012-0.714
		c-0.012-0.499,0.087-0.819,0.293-1.03C16.22,17.059,16.541,17,16.981,17h0.12c0.595,0,0.847,0.18,0.869,0.684
		c-0.01,0.125-0.04,0.42-0.769,1.113C16.346,19.652,16,20.342,16,21.049V22h2v-0.717c0-0.2,0.042-0.651,0.839-1.413
		c0.896-0.825,1.294-1.574,1.294-2.311C20.081,16.301,19.47,14.781,17.032,14.689z"/>
</g>
</svg>
