<?xml version="1.0" encoding="utf-8"?>
<!-- Generator: Adobe Illustrator 16.0.0, SVG Export Plug-In . SVG Version: 6.00 Build 0)  -->
<!DOCTYPE svg PUBLIC "-//W3C//DTD SVG 1.1//EN" "http://www.w3.org/Graphics/SVG/1.1/DTD/svg11.dtd">
<svg version="1.1" id="图层_1" xmlns="http://www.w3.org/2000/svg" xmlns:xlink="http://www.w3.org/1999/xlink" x="0px" y="0px"
	 width="36px" height="36px" viewBox="0 0 36 36" enable-background="new 0 0 36 36" xml:space="preserve">
<path fill="#FF0000" d="M34,28c0,1.657-1.343,3-3,3H5c-1.657,0-3-1.343-3-3V8c0-1.656,1.343-3,3-3h26c1.657,0,3,1.344,3,3V28z">
	<animate attributeName="opacity" from="1" to="0" begin="0s" dur="2s" repeatCount="indefinite" />
</path>
<path fill="#FFFFFF" d="M31,15c0,0.553-0.447,1-1,1H6c-0.553,0-1-0.447-1-1v-5c0-0.553,0.447-1,1-1h24c0.553,0,1,0.447,1,1V15z"/>
<path fill="#FFFFFF" d="M17,27c0,0.553-0.447,1-1,1H6c-0.553,0-1-0.447-1-1v-9c0-0.553,0.447-1,1-1h10c0.553,0,1,0.447,1,1V27z"/>
<path fill="#FFFFFF" d="M31,27c0,0.553-0.447,1-1,1H20c-0.553,0-1-0.447-1-1v-9c0-0.553,0.447-1,1-1h10c0.553,0,1,0.447,1,1V27z"/>
<g>
	<path fill="#FF0000" d="M10.34,11.917l-1.061,2.712H8.323l-1.025-2.712h0.887l0.521,1.721c0.058,0.174,0.093,0.33,0.104,0.47h0.018
		c0.022-0.128,0.058-0.29,0.104-0.487l0.505-1.703H10.34z"/>
	<path fill="#FF0000" d="M10.479,13.446l0.853-0.156c0.069,0.521,0.358,0.782,0.869,0.782c0.383-0.011,0.585-0.162,0.608-0.452
		c0-0.22-0.134-0.382-0.4-0.486c-0.277-0.093-0.533-0.168-0.765-0.227c-0.707-0.15-1.049-0.516-1.025-1.095
		c0.069-0.649,0.539-0.997,1.408-1.043c0.904-0.012,1.437,0.348,1.6,1.077l-0.853,0.174c-0.058-0.382-0.295-0.573-0.713-0.573
		c-0.336,0.012-0.516,0.134-0.539,0.365c-0.022,0.22,0.203,0.382,0.679,0.486c0.336,0.07,0.637,0.174,0.904,0.313
		c0.405,0.208,0.614,0.533,0.626,0.974c-0.035,0.741-0.539,1.124-1.513,1.147C11.233,14.745,10.653,14.316,10.479,13.446z"/>
	<path fill="#FF0000" d="M18.582,11.917l-0.956,2.729h-0.922l-0.435-1.635c-0.023-0.104-0.035-0.22-0.035-0.348h-0.017
		c0,0.14-0.012,0.255-0.035,0.348l-0.487,1.635h-0.869l-0.956-2.729h0.887l0.487,1.79c0,0.023,0.005,0.064,0.017,0.122
		c0.012,0.081,0.018,0.146,0.018,0.191h0.018c0-0.046,0.006-0.11,0.018-0.191c0.011-0.058,0.018-0.099,0.018-0.122l0.469-1.79h0.835
		l0.47,1.79c0.011,0.047,0.028,0.151,0.052,0.313h0.018c0.022-0.162,0.04-0.267,0.052-0.313l0.47-1.79H18.582z"/>
	<path fill="#FF0000" d="M19.729,11.534h-0.869v-0.713h0.869V11.534z M19.729,14.664h-0.869v-2.73h0.869V14.664z"/>
	<path fill="#FF0000" d="M20.512,13.864v-1.321h-0.435v-0.626h0.435v-0.939l0.835-0.174v1.113h0.66v0.626h-0.66v1.112
		c0,0.302,0.109,0.446,0.33,0.435c0.081,0,0.162-0.023,0.243-0.069l0.174,0.539c-0.197,0.104-0.429,0.156-0.695,0.156
		C20.796,14.728,20.5,14.443,20.512,13.864z"/>
	<path fill="#FF0000" d="M25.274,12.769l-0.852,0.139c-0.104-0.243-0.29-0.376-0.557-0.399c-0.44,0.023-0.672,0.29-0.695,0.8
		c0,0.521,0.232,0.782,0.695,0.782c0.313-0.023,0.499-0.186,0.557-0.486l0.904,0.104c-0.209,0.696-0.707,1.032-1.495,1.009
		c-0.997-0.023-1.507-0.498-1.53-1.426c0.035-0.927,0.551-1.408,1.548-1.443C24.556,11.87,25.031,12.178,25.274,12.769z"/>
	<path fill="#FF0000" d="M28.492,14.646H27.64v-1.53c0-0.405-0.168-0.608-0.504-0.608c-0.336,0.035-0.516,0.249-0.539,0.644v1.495
		h-0.834v-4.068h0.834v1.756c0.232-0.313,0.527-0.476,0.887-0.487c0.672,0,1.009,0.377,1.009,1.131V14.646z"/>
</g>
<g>
	<path fill="#FF0000" d="M10.616,20.361L9.138,24.3H8.139l-1.497-3.938h0.963l0.927,2.763c0.035,0.131,0.077,0.261,0.125,0.392
		c0.059-0.178,0.101-0.314,0.124-0.41l0.874-2.744H10.616z"/>
	<path fill="#FF0000" d="M15.055,24.3h-0.855v-2.335c0-0.249,0.012-0.546,0.035-0.891h-0.018c-0.035,0.237-0.083,0.463-0.143,0.677
		l-0.73,2.549h-0.749l-0.73-2.62c-0.036-0.143-0.083-0.345-0.143-0.605h-0.018c0,0.071,0.006,0.172,0.018,0.303
		c0.012,0.356,0.018,0.612,0.018,0.767V24.3h-0.838v-3.938h1.319l0.695,2.584c0.012,0.071,0.029,0.214,0.054,0.428
		c0-0.035,0.006-0.083,0.018-0.143c0-0.154,0.012-0.249,0.035-0.285l0.695-2.584h1.337V24.3z"/>
</g>
<g>
	<path fill="#FF0000" d="M24.616,20.361L23.138,24.3h-0.999l-1.497-3.938h0.963l0.927,2.763c0.035,0.131,0.077,0.261,0.125,0.392
		c0.059-0.178,0.101-0.314,0.124-0.41l0.874-2.744H24.616z"/>
	<path fill="#FF0000" d="M29.055,24.3h-0.855v-2.335c0-0.249,0.012-0.546,0.035-0.891h-0.018c-0.035,0.237-0.083,0.463-0.143,0.677
		l-0.73,2.549h-0.749l-0.73-2.62c-0.036-0.143-0.083-0.345-0.143-0.605h-0.018c0,0.071,0.006,0.172,0.018,0.303
		c0.012,0.356,0.018,0.612,0.018,0.767V24.3h-0.838v-3.938h1.319l0.695,2.584c0.012,0.071,0.029,0.214,0.054,0.428
		c0-0.035,0.006-0.083,0.018-0.143c0-0.154,0.012-0.249,0.035-0.285l0.695-2.584h1.337V24.3z"/>
</g>
</svg>
