<?xml version="1.0" encoding="utf-8"?>
<!-- Generator: Adobe Illustrator 16.0.0, SVG Export Plug-In . SVG Version: 6.00 Build 0)  -->
<!DOCTYPE svg PUBLIC "-//W3C//DTD SVG 1.1//EN" "http://www.w3.org/Graphics/SVG/1.1/DTD/svg11.dtd">
<svg version="1.1" id="图层_1" xmlns="http://www.w3.org/2000/svg" xmlns:xlink="http://www.w3.org/1999/xlink" x="0px" y="0px"
	 width="36px" height="36px" viewBox="0 0 36 36" enable-background="new 0 0 36 36" xml:space="preserve">
<radialGradient id="SVGID_1_" cx="14.875" cy="13.5" r="14.2506" gradientUnits="userSpaceOnUse">
	<stop  offset="0.0012" style="stop-color:#FF6A7A"/>
	<stop  offset="0.6599" style="stop-color:#BF0025"/>
	<stop  offset="1" style="stop-color:#6A0002"/>
</radialGradient>
<circle fill="url(#SVGID_1_)" cx="17.75" cy="17.75" r="11.375"/>
<g>
	<g>
		<path fill="#FFFFFF" d="M8.812,25.49c-0.033-0.186-0.064-0.37-0.095-0.556c0.49,0.002,0.8-0.049,0.926-0.143
			c0.222-0.176,0.299-0.551,0.236-1.118c-0.292-2.625-0.396-5.25-0.31-7.875c-0.474,0.012-0.947,0.024-1.42,0.038
			c0.013-0.339,0.03-0.679,0.051-1.019c0.471-0.021,0.941-0.041,1.413-0.06c0.087-1.654,0.407-2.855,0.851-3.619
			c0.781-1.303,2.086-2.085,3.915-2.192c0.801-0.045,1.492,0.129,2.091,0.516c0.689,0.451,1.043,1.086,1.039,1.885
			c-0.003,0.45-0.137,0.822-0.408,1.115c-0.27,0.294-0.652,0.442-1.141,0.45c-0.474,0.007-0.829-0.13-1.063-0.414
			c-0.234-0.283-0.344-0.58-0.331-0.894c0.009-0.231,0.11-0.507,0.299-0.827c0.189-0.32,0.285-0.531,0.289-0.63
			c0.007-0.166-0.058-0.283-0.195-0.352c-0.138-0.068-0.3-0.098-0.487-0.089c-0.484,0.024-0.829,0.274-1.035,0.742
			c-0.131,0.301-0.215,0.705-0.245,1.212c-0.06,0.998-0.104,1.995-0.133,2.993c0.719-0.016,1.438-0.029,2.157-0.038
			c-0.006,0.364-0.011,0.729-0.015,1.093c-0.723,0.006-1.446,0.014-2.168,0.024c-0.047,2.562,0.003,5.122,0.153,7.684
			c0.049,0.832,0.212,1.369,0.472,1.612c0.259,0.241,0.787,0.388,1.585,0.418c0.01,0.207,0.019,0.414,0.029,0.621
			C13.118,25.979,10.964,25.787,8.812,25.49z"/>
		<path fill="#FFFFFF" d="M19.767,12.41c-0.166,0.671-0.338,1.343-0.514,2.016c1.188,0.008,2.192,0.112,3.015,0.3
			c0.822,0.188,1.646,0.522,2.474,0.989c0.69,0.383,1.278,0.911,1.749,1.574c0.588,0.838,0.864,1.77,0.808,2.826
			c-0.084,1.599-0.849,2.96-2.137,4.132c-1.383,1.236-3.065,1.977-5.112,2.043c-0.941,0.03-1.723-0.157-2.364-0.544
			c-0.641-0.386-0.977-0.935-0.989-1.632c-0.007-0.4,0.111-0.748,0.359-1.046c0.248-0.298,0.625-0.445,1.129-0.446
			c0.584-0.002,1.384,0.358,2.358,1.055c0.972,0.695,1.663,1.014,2.123,0.987c0.538-0.03,1.042-0.236,1.518-0.605
			c0.646-0.511,1.018-1.194,1.078-2.056c0.048-0.686-0.178-1.304-0.68-1.87c-0.5-0.565-1.129-1.011-1.874-1.332
			c-0.745-0.32-1.581-0.562-2.506-0.718s-1.871-0.235-2.837-0.235c0.807-2.875,1.633-5.756,2.302-8.605
			c2.501,0.062,5.003,0.262,7.505,0.599c-0.165,0.935-0.381,1.89-0.636,2.861C24.279,12.541,22.023,12.444,19.767,12.41z"/>
	</g>
</g>
</svg>
